<svg width="198" height="66" viewBox="0 0 198 66" fill="none" xmlns="http://www.w3.org/2000/svg">
<rect y="6.49219" width="51.7647" height="51.9399" rx="14.4658" fill="#3692FF"/>
<path d="M24.9948 20.9522C25.641 23.1852 23.9325 25.6457 21.9741 26.2162C20.0157 26.7868 17.3402 25.6035 16.694 23.3705C16.0479 21.1375 17.4043 18.0436 19.3627 17.473C21.9741 16.7122 24.3487 18.7192 24.9948 20.9522Z" fill="#222327"/>
<path d="M26.0716 20.9522C25.4254 23.1852 27.1339 25.6457 29.0923 26.2162C31.0507 26.7868 33.7262 25.6035 34.3724 23.3705C35.0185 21.1375 33.6621 18.0436 31.7037 17.473C29.0923 16.7122 26.7177 18.7192 26.0716 20.9522Z" fill="#222327"/>
<path d="M38.1985 37.2651C38.1985 42.9448 32.6294 45.056 25.0329 45.056C17.4363 45.056 11.9932 42.9448 11.9932 37.2651C11.9932 30.6585 17.4363 24.7998 25.0329 24.7998C32.6294 24.7998 38.1985 30.1599 38.1985 37.2651Z" fill="#F3D6DD"/>
<path d="M22.5182 36.1438C22.5182 38.004 21.3243 40.0446 19.6558 40.0446C17.9873 40.0446 15.292 38.529 15.292 35.7503C15.292 33.14 18.2037 32.2117 21.2125 32.6883C23.0565 32.9805 22.5182 34.2837 22.5182 36.1438Z" fill="#222327"/>
<path d="M21.1227 35.9564C21.1227 36.2354 21.0388 36.4616 20.6192 36.4616C20.1996 36.4616 20.1157 36.2354 20.1157 35.9564C20.1157 35.6774 20.2836 35.4512 20.6192 35.4512C20.9549 35.4512 21.1227 35.6774 21.1227 35.9564Z" fill="white"/>
<path d="M27.5931 36.1438C27.5931 38.004 28.7871 40.0446 30.4556 40.0446C32.1241 40.0446 34.8193 38.529 34.8193 35.7503C34.8193 33.14 31.9076 32.2117 28.8989 32.6883C27.0548 32.9805 27.5931 34.2837 27.5931 36.1438Z" fill="#222327"/>
<path d="M28.99 35.9564C28.99 36.2354 29.074 36.4616 29.4936 36.4616C29.9132 36.4616 29.9971 36.2354 29.9971 35.9564C29.9971 35.6774 29.8292 35.4512 29.4936 35.4512C29.1579 35.4512 28.99 35.6774 28.99 35.9564Z" fill="white"/>
<path d="M23.1328 38.8339C23.0312 38.6857 22.8286 38.6478 22.6803 38.7494C22.532 38.851 22.4942 39.0536 22.5958 39.2019L23.1328 38.8339ZM24.9995 38.4336L25.3074 38.3281C25.2623 38.1965 25.1386 38.1081 24.9995 38.1081C24.8604 38.1081 24.7367 38.1965 24.6916 38.3281L24.9995 38.4336ZM27.4033 39.2019C27.5049 39.0536 27.467 38.851 27.3187 38.7494C27.1704 38.6478 26.9679 38.6857 26.8663 38.8339L27.4033 39.2019ZM22.5958 39.2019C22.6857 39.3331 22.849 39.509 23.068 39.6543C23.289 39.8009 23.5843 39.9277 23.9319 39.9277V39.2767C23.7456 39.2767 23.5738 39.2087 23.4279 39.1119C23.2799 39.0137 23.1763 38.8975 23.1328 38.8339L22.5958 39.2019ZM23.9319 39.9277C24.3596 39.9277 24.6778 39.6226 24.8757 39.3599C25.0848 39.0825 25.2325 38.7576 25.3074 38.5391L24.6916 38.3281C24.633 38.4991 24.5138 38.7585 24.3559 38.9681C24.1869 39.1923 24.038 39.2767 23.9319 39.2767V39.9277ZM24.6916 38.5391C24.7665 38.7576 24.9142 39.0825 25.1233 39.3599C25.3213 39.6226 25.6394 39.9277 26.0671 39.9277V39.2767C25.9611 39.2767 25.8121 39.1923 25.6431 38.9681C25.4852 38.7585 25.366 38.4991 25.3074 38.3281L24.6916 38.5391ZM26.0671 39.9277C26.4147 39.9277 26.71 39.8009 26.931 39.6543C27.15 39.509 27.3133 39.3331 27.4033 39.2019L26.8663 38.8339C26.8227 38.8975 26.7191 39.0137 26.5712 39.1119C26.4252 39.2087 26.2534 39.2767 26.0671 39.2767V39.9277Z" fill="#222327"/>
<path d="M26.7765 38.1336C26.7765 38.4043 25.5574 38.7489 25.1472 38.8573C25.0595 38.8804 24.969 38.8804 24.8813 38.8573C24.4711 38.7489 23.252 38.4043 23.252 38.1336C23.252 37.8081 24.2263 37.46 25.0142 37.46C25.8021 37.46 26.7765 37.8081 26.7765 38.1336Z" fill="#222327"/>
<path d="M24.8035 29.4751C19.9063 29.4751 18.1066 27.7546 17.8154 26.7483L20.1448 24.2163L25.1918 23.3398L32.1799 26.7483C31.7593 27.5599 29.7062 29.4751 24.8035 29.4751Z" fill="#222327"/>
<path fill-rule="evenodd" clip-rule="evenodd" d="M25.4811 47.8806C35.6011 47.8806 43.0201 45.0284 43.0201 37.3552C43.0201 27.7561 35.6011 20.5146 25.4811 20.5146C15.361 20.5146 8.10986 28.4297 8.10986 37.3552C8.10986 45.0284 15.361 47.8806 25.4811 47.8806ZM25.0832 44.9337C32.5273 44.9337 37.9845 42.845 37.9845 37.2259C37.9845 30.1964 32.5273 24.8934 25.0832 24.8934C17.6392 24.8934 12.3054 30.6897 12.3054 37.2259C12.3054 42.845 17.6392 44.9337 25.0832 44.9337Z" fill="white"/>
<path d="M91.7434 27.6676H95.724V32.3117H91.7434V41.7326H85.7724V35.8943C81.5263 36.7567 77.3135 37.2212 71.1766 37.2212H64.2104V32.6766H66.8642V23.2557H64.8739V18.7774H83.1849V23.2557H81.1946V32.179C82.82 31.9799 84.346 31.7477 85.7724 31.4824V18.4457H91.7434V27.6676ZM67.4945 49.6276V39.7754H73.5982V45.0166H92.4068V49.6276H67.4945ZM72.8352 32.6766C73.6645 32.6434 74.4606 32.6434 75.2236 32.6102V23.2557H72.8352V32.6766ZM128.896 29.9896V34.6337H124.916V49.6276H118.945V44.4195C114.699 45.6469 110.486 46.3435 104.349 46.3435H98.3778V19.4409H115.362V23.9191H104.349V41.7989C110.419 41.7989 114.732 41.2018 118.945 40.0076V18.4457H124.916V29.9896H128.896ZM162.068 29.9896V34.6337H158.088V49.6276H152.117V18.4457H158.088V29.9896H162.068ZM131.55 46.3435V19.4409H148.899V46.3435H131.55ZM137.521 41.7989H142.994V23.9854H137.521V41.7989ZM187.445 18.4457H193.25V36.425H187.445V18.4457ZM162.732 32.8756C166.613 32.0795 169.532 30.8521 171.158 29.293L164.722 29.6911V25.3787H172.551V23.2557H165.386V18.7774H178.356V24.7484H180.247V18.6115H185.886V36.425H180.247V29.3925H177.494C175.735 32.8092 171.323 35.6289 164.623 37.3207L162.732 32.8756ZM166.348 44.8839C174.541 44.5854 176.93 42.8936 176.93 40.0076V37.4865H182.901V40.5384C182.901 41.3345 182.801 42.0975 182.602 42.7941C186.45 43.0595 190.265 43.5902 193.25 44.2868L191.658 49.6276C188.241 48.4334 183.465 47.2723 179.617 46.6421C176.863 48.4997 172.451 49.3954 166.978 49.6276L166.348 44.8839Z" fill="#3692FF"/>
</svg>
