<svg width="153" height="51" viewBox="0 0 153 51" fill="none" xmlns="http://www.w3.org/2000/svg">
<rect y="5.01685" width="40" height="40.1354" rx="11.1782" fill="#3692FF"/>
<path d="M19.3141 16.1915C19.8134 17.9169 18.4932 19.8183 16.9799 20.2591C15.4666 20.7 13.3991 19.7856 12.8998 18.0601C12.4005 16.3346 13.4487 13.9439 14.962 13.503C16.9799 12.9151 18.8148 14.466 19.3141 16.1915Z" fill="#222327"/>
<path d="M20.1463 16.1915C19.647 17.9169 20.9673 19.8183 22.4806 20.2591C23.9939 20.7 26.0613 19.7856 26.5606 18.0601C27.0599 16.3346 26.0117 13.9439 24.4984 13.503C22.4806 12.9151 20.6456 14.466 20.1463 16.1915Z" fill="#222327"/>
<path d="M29.5167 28.7966C29.5167 33.1854 25.2133 34.8168 19.3432 34.8168C13.4731 34.8168 9.26709 33.1854 9.26709 28.7966C9.26709 23.6915 13.4731 19.1643 19.3432 19.1643C25.2133 19.1643 29.5167 23.3062 29.5167 28.7966Z" fill="#F3D6DD"/>
<path d="M17.4003 27.9301C17.4003 29.3675 16.4777 30.9444 15.1884 30.9444C13.8991 30.9444 11.8164 29.7732 11.8164 27.626C11.8164 25.609 14.0664 24.8916 16.3913 25.2599C17.8163 25.4857 17.4003 26.4927 17.4003 27.9301Z" fill="#222327"/>
<path d="M16.3219 27.785C16.3219 28.0007 16.257 28.1754 15.9328 28.1754C15.6085 28.1754 15.5437 28.0007 15.5437 27.785C15.5437 27.5694 15.6734 27.3947 15.9328 27.3947C16.1922 27.3947 16.3219 27.5694 16.3219 27.785Z" fill="white"/>
<path d="M21.3221 27.9301C21.3221 29.3675 22.2447 30.9444 23.534 30.9444C24.8233 30.9444 26.906 29.7732 26.906 27.626C26.906 25.609 24.6561 24.8916 22.3311 25.2599C20.9061 25.4857 21.3221 26.4927 21.3221 27.9301Z" fill="#222327"/>
<path d="M22.4015 27.7852C22.4015 28.0008 22.4664 28.1756 22.7906 28.1756C23.1148 28.1756 23.1797 28.0008 23.1797 27.7852C23.1797 27.5696 23.05 27.3948 22.7906 27.3948C22.5312 27.3948 22.4015 27.5696 22.4015 27.7852Z" fill="white"/>
<path d="M17.875 30.0098C17.7964 29.8952 17.6399 29.866 17.5253 29.9445C17.4107 30.023 17.3815 30.1795 17.46 30.2941L17.875 30.0098ZM19.3174 29.7004L19.5554 29.6189C19.5205 29.5172 19.4249 29.4489 19.3174 29.4489C19.21 29.4489 19.1144 29.5172 19.0795 29.6189L19.3174 29.7004ZM21.1749 30.2941C21.2534 30.1795 21.2242 30.023 21.1096 29.9445C20.995 29.866 20.8385 29.8952 20.7599 30.0098L21.1749 30.2941ZM17.46 30.2941C17.5295 30.3955 17.6557 30.5315 17.8249 30.6437C17.9957 30.757 18.2239 30.855 18.4925 30.855V30.352C18.3485 30.352 18.2158 30.2994 18.103 30.2246C17.9886 30.1487 17.9086 30.0589 17.875 30.0098L17.46 30.2941ZM18.4925 30.855C18.823 30.855 19.0688 30.6192 19.2218 30.4162C19.3834 30.2019 19.4975 29.9508 19.5554 29.782L19.0795 29.6189C19.0342 29.7511 18.9422 29.9515 18.8201 30.1135C18.6895 30.2867 18.5744 30.352 18.4925 30.352V30.855ZM19.0795 29.782C19.1374 29.9508 19.2515 30.2019 19.4131 30.4162C19.5661 30.6192 19.8119 30.855 20.1424 30.855V30.352C20.0605 30.352 19.9454 30.2867 19.8148 30.1135C19.6927 29.9515 19.6006 29.7511 19.5554 29.6189L19.0795 29.782ZM20.1424 30.855C20.411 30.855 20.6392 30.757 20.81 30.6437C20.9792 30.5315 21.1054 30.3955 21.1749 30.2941L20.7599 30.0098C20.7263 30.0589 20.6463 30.1487 20.5319 30.2246C20.4191 30.2994 20.2863 30.352 20.1424 30.352V30.855Z" fill="#222327"/>
<path d="M20.6906 29.468C20.6906 29.6773 19.7486 29.9435 19.4315 30.0272C19.3638 30.0451 19.2939 30.0451 19.2261 30.0272C18.9091 29.9435 17.967 29.6773 17.967 29.468C17.967 29.2165 18.72 28.9475 19.3288 28.9475C19.9376 28.9475 20.6906 29.2165 20.6906 29.468Z" fill="#222327"/>
<path d="M19.166 22.7763C15.3818 22.7763 13.9911 21.4468 13.7661 20.6692L15.5661 18.7127L19.466 18.0354L24.8659 20.6692C24.5409 21.2963 22.9544 22.7763 19.166 22.7763Z" fill="#222327"/>
<path fill-rule="evenodd" clip-rule="evenodd" d="M19.6898 36.9992C27.5098 36.9992 33.2427 34.7952 33.2427 28.8659C33.2427 21.4484 27.5098 15.8528 19.6898 15.8528C11.8698 15.8528 6.2666 21.969 6.2666 28.8659C6.2666 34.7952 11.8698 36.9992 19.6898 36.9992ZM19.3823 34.7221C25.1345 34.7221 29.3515 33.1081 29.3515 28.7661C29.3515 23.3342 25.1345 19.2364 19.3823 19.2364C13.6301 19.2364 9.50854 23.7154 9.50854 28.7661C9.50854 33.1081 13.6301 34.7221 19.3823 34.7221Z" fill="white"/>
<path d="M70.8926 22.1522H73.9685V25.7408H70.8926V33.0206H66.2786V28.5092C62.9976 29.1757 59.7422 29.5345 55.0001 29.5345H49.6171V26.0228H51.6678V18.743H50.1298V15.2825H64.2792V18.743H62.7413V25.6383C63.9973 25.4845 65.1764 25.3051 66.2786 25.1V15.0262H70.8926V22.1522ZM52.1548 39.1213V31.5083H56.8713V35.5583H71.4052V39.1213H52.1548ZM56.2817 26.0228C56.9225 25.9972 57.5377 25.9972 58.1273 25.9715V18.743H56.2817V26.0228ZM99.6016 23.9465V27.5351H96.5256V39.1213H91.9117V35.0969C88.6306 36.0453 85.3752 36.5836 80.6331 36.5836H76.0192V15.7952H89.1433V19.2557H80.6331V33.0719C85.324 33.0719 88.6563 32.6105 91.9117 31.6877V15.0262H96.5256V23.9465H99.6016ZM125.235 23.9465V27.5351H122.159V39.1213H117.545V15.0262H122.159V23.9465H125.235ZM101.652 36.5836V15.7952H115.058V36.5836H101.652ZM106.266 33.0719H110.496V19.3069H106.266V33.0719ZM144.844 15.0262H149.33V28.9193H144.844V15.0262ZM125.747 26.1766C128.746 25.5614 131.002 24.613 132.258 23.4082L127.285 23.7158V20.3835H133.335V18.743H127.798V15.2825H137.821V19.8965H139.282V15.1544H143.639V28.9193H139.282V23.4851H137.154C135.795 26.1253 132.386 28.3041 127.208 29.6114L125.747 26.1766ZM128.541 35.4558C134.873 35.2251 136.718 33.9178 136.718 31.6877V29.7396H141.332V32.0978C141.332 32.713 141.255 33.3026 141.102 33.8409C144.075 34.0459 147.023 34.4561 149.33 34.9944L148.099 39.1213C145.459 38.1985 141.768 37.3013 138.795 36.8143C136.667 38.2498 133.258 38.9419 129.028 39.1213L128.541 35.4558Z" fill="#3692FF"/>
</svg>
