<svg width="20" height="18" viewBox="0 0 20 18" fill="none" xmlns="http://www.w3.org/2000/svg">
<path d="M3.53333 0.600122C3.03627 0.600122 2.63333 1.00307 2.63333 1.50012C2.63333 1.99718 3.03627 2.40012 3.53333 2.40012V0.600122ZM3.53333 2.40012H13.6667V0.600122H3.53333V2.40012ZM18.1 6.83345V7.90012H19.9V6.83345H18.1ZM13.6667 12.3335H3.53333V14.1335H13.6667V12.3335ZM18.1 7.90012C18.1 10.3486 16.1151 12.3335 13.6667 12.3335V14.1335C17.1092 14.1335 19.9 11.3427 19.9 7.90012H18.1ZM13.6667 2.40012C16.1151 2.40012 18.1 4.38499 18.1 6.83345H19.9C19.9 3.39088 17.1092 0.600122 13.6667 0.600122V2.40012Z" fill="white"/>
<path d="M-1.86502e-07 13.2335L7.2 9.53841L7.2 16.9285L-1.86502e-07 13.2335Z" fill="white"/>
</svg>
