<svg width="32" height="32" viewBox="0 0 32 32" fill="none" xmlns="http://www.w3.org/2000/svg">
<g clip-path="url(#clip0_28783_14707)">
<circle cx="16" cy="16" r="16" fill="#D1D5DB"/>
<path d="M15.4994 6.98345C15.9077 8.39442 14.8281 9.94919 13.5906 10.3097C12.3532 10.6702 10.6625 9.92249 10.2543 8.51152C9.84596 7.10054 10.7031 5.14554 11.9406 4.78503C13.5906 4.30431 15.0911 5.57247 15.4994 6.98345Z" fill="white"/>
<path d="M16.1801 6.98345C15.7718 8.39442 16.8513 9.94919 18.0888 10.3097C19.3263 10.6702 21.0169 9.92249 21.4252 8.51152C21.8335 7.10054 20.9764 5.14554 19.7389 4.78503C18.0888 4.30431 16.5884 5.57247 16.1801 6.98345Z" fill="white"/>
<path d="M23.8414 17.2919C23.8414 20.8807 20.3224 22.2148 15.5222 22.2148C10.7221 22.2148 7.28271 20.8807 7.28271 17.2919C7.28271 13.1173 10.7221 9.41528 15.5222 9.41528C20.3224 9.41528 23.8414 12.8022 23.8414 17.2919Z" fill="white"/>
<path d="M13.9335 16.583C13.9335 17.7584 13.1791 19.0478 12.1248 19.0478C11.0705 19.0478 9.36743 18.0901 9.36743 16.3343C9.36743 14.6849 11.2073 14.0983 13.1085 14.3995C14.2737 14.5841 13.9335 15.4076 13.9335 16.583Z" fill="#D1D5DB"/>
<path d="M13.0531 16.4638C13.0531 16.6401 13 16.783 12.7349 16.783C12.4698 16.783 12.4167 16.6401 12.4167 16.4638C12.4167 16.2875 12.5228 16.1445 12.7349 16.1445C12.947 16.1445 13.0531 16.2875 13.0531 16.4638Z" fill="white"/>
<path d="M17.1407 16.583C17.1407 17.7584 17.8951 19.0478 18.9494 19.0478C20.0037 19.0478 21.7068 18.0901 21.7068 16.3343C21.7068 14.6849 19.8669 14.0983 17.9658 14.3995C16.8005 14.5841 17.1407 15.4076 17.1407 16.583Z" fill="#D1D5DB"/>
<path d="M18.0229 16.4638C18.0229 16.6401 18.0759 16.783 18.341 16.783C18.6062 16.783 18.6592 16.6401 18.6592 16.4638C18.6592 16.2875 18.5531 16.1445 18.341 16.1445C18.1289 16.1445 18.0229 16.2875 18.0229 16.4638Z" fill="white"/>
<path fill-rule="evenodd" clip-rule="evenodd" d="M15.8061 24.0002C22.2007 24.0002 26.8887 22.198 26.8887 17.3495C26.8887 11.284 22.2007 6.70825 15.8061 6.70825C9.41146 6.70825 4.82959 11.7096 4.82959 17.3495C4.82959 22.198 9.41146 24.0002 15.8061 24.0002ZM15.5546 22.1381C20.2584 22.1381 23.7067 20.8183 23.7067 17.2677C23.7067 12.8258 20.2584 9.475 15.5546 9.475C10.8509 9.475 7.48057 13.1375 7.48057 17.2677C7.48057 20.8183 10.8509 22.1381 15.5546 22.1381Z" fill="white"/>
<mask id="mask0_28783_14707" style="mask-type:alpha" maskUnits="userSpaceOnUse" x="0" y="0" width="32" height="32">
<circle cx="16" cy="16" r="16" fill="#9CA3AF"/>
</mask>
<g mask="url(#mask0_28783_14707)">
<ellipse cx="15.6667" cy="30" rx="9" ry="10" fill="white"/>
</g>
</g>
<defs>
<clipPath id="clip0_28783_14707">
<rect width="32" height="32" fill="white"/>
</clipPath>
</defs>
</svg>
