<svg width="40" height="41" viewBox="0 0 40 41" fill="none" xmlns="http://www.w3.org/2000/svg">
<rect y="0.0168457" width="40" height="40.1354" rx="11.1782" fill="#3692FF"/>
<path d="M19.3143 11.1911C19.8136 12.9166 18.4934 14.8179 16.9801 15.2588C15.4668 15.6996 13.3994 14.7852 12.9001 13.0598C12.4008 11.3343 13.4489 8.94351 14.9622 8.50264C16.9801 7.91476 18.815 9.4656 19.3143 11.1911Z" fill="#222327"/>
<path d="M20.1465 11.1911C19.6472 12.9166 20.9674 14.8179 22.4807 15.2588C23.994 15.6996 26.0614 14.7852 26.5607 13.0598C27.06 11.3343 26.0119 8.94351 24.4986 8.50264C22.4807 7.91476 20.6458 9.4656 20.1465 11.1911Z" fill="#222327"/>
<path d="M29.5171 23.7967C29.5171 28.1855 25.2137 29.8169 19.3436 29.8169C13.4735 29.8169 9.26746 28.1855 9.26746 23.7967C9.26746 18.6916 13.4735 14.1644 19.3436 14.1644C25.2137 14.1644 29.5171 18.3063 29.5171 23.7967Z" fill="#F3D6DD"/>
<path d="M17.4004 22.9301C17.4004 24.3675 16.4778 25.9444 15.1885 25.9444C13.8992 25.9444 11.8165 24.7732 11.8165 22.626C11.8165 20.609 14.0665 19.8916 16.3914 20.2599C17.8164 20.4857 17.4004 21.4927 17.4004 22.9301Z" fill="#222327"/>
<path d="M16.322 22.785C16.322 23.0007 16.2571 23.1754 15.9329 23.1754C15.6087 23.1754 15.5438 23.0007 15.5438 22.785C15.5438 22.5694 15.6735 22.3947 15.9329 22.3947C16.1923 22.3947 16.322 22.5694 16.322 22.785Z" fill="white"/>
<path d="M21.3221 22.9302C21.3221 24.3676 22.2447 25.9445 23.534 25.9445C24.8233 25.9445 26.906 24.7733 26.906 22.6261C26.906 20.6091 24.6561 19.8917 22.3311 20.2601C20.9061 20.4858 21.3221 21.4928 21.3221 22.9302Z" fill="#222327"/>
<path d="M22.4018 22.785C22.4018 23.0007 22.4666 23.1754 22.7909 23.1754C23.1151 23.1754 23.1799 23.0007 23.1799 22.785C23.1799 22.5694 23.0502 22.3947 22.7909 22.3947C22.5315 22.3947 22.4018 22.5694 22.4018 22.785Z" fill="white"/>
<path d="M17.8753 25.0092C17.7968 24.8946 17.6403 24.8654 17.5257 24.9439C17.4111 25.0224 17.3819 25.1789 17.4604 25.2935L17.8753 25.0092ZM19.3178 24.6998L19.5557 24.6183C19.5209 24.5166 19.4253 24.4483 19.3178 24.4483C19.2103 24.4483 19.1147 24.5166 19.0799 24.6183L19.3178 24.6998ZM21.1753 25.2935C21.2538 25.1789 21.2245 25.0224 21.1099 24.9439C20.9954 24.8654 20.8388 24.8946 20.7603 25.0092L21.1753 25.2935ZM17.4604 25.2935C17.5299 25.3949 17.6561 25.5308 17.8253 25.6431C17.9961 25.7564 18.2243 25.8544 18.4928 25.8544V25.3514C18.3489 25.3514 18.2162 25.2988 18.1034 25.224C17.989 25.1481 17.909 25.0583 17.8753 25.0092L17.4604 25.2935ZM18.4928 25.8544C18.8234 25.8544 19.0692 25.6186 19.2222 25.4156C19.3837 25.2013 19.4979 24.9502 19.5557 24.7813L19.0799 24.6183C19.0346 24.7505 18.9425 24.9509 18.8205 25.1128C18.6899 25.2861 18.5748 25.3514 18.4928 25.3514V25.8544ZM19.0799 24.7813C19.1377 24.9502 19.2519 25.2013 19.4134 25.4156C19.5664 25.6186 19.8123 25.8544 20.1428 25.8544V25.3514C20.0608 25.3514 19.9457 25.2861 19.8151 25.1128C19.6931 24.9509 19.601 24.7505 19.5557 24.6183L19.0799 24.7813ZM20.1428 25.8544C20.4114 25.8544 20.6395 25.7564 20.8103 25.6431C20.9796 25.5308 21.1058 25.3949 21.1753 25.2935L20.7603 25.0092C20.7267 25.0583 20.6466 25.1481 20.5323 25.224C20.4195 25.2988 20.2867 25.3514 20.1428 25.3514V25.8544Z" fill="#222327"/>
<path d="M20.691 24.4678C20.691 24.677 19.7489 24.9433 19.4319 25.027C19.3641 25.0449 19.2942 25.0449 19.2265 25.027C18.9094 24.9433 17.9674 24.677 17.9674 24.4678C17.9674 24.2162 18.7203 23.9473 19.3292 23.9473C19.938 23.9473 20.691 24.2162 20.691 24.4678Z" fill="#222327"/>
<path d="M19.1664 17.7768C15.3822 17.7768 13.9915 16.4473 13.7665 15.6697L15.5664 13.7132L19.4664 13.0359L24.8663 15.6697C24.5413 16.2968 22.9548 17.7768 19.1664 17.7768Z" fill="#222327"/>
<path fill-rule="evenodd" clip-rule="evenodd" d="M19.69 31.9995C27.5101 31.9995 33.2429 29.7956 33.2429 23.8663C33.2429 16.4488 27.5101 10.8531 19.69 10.8531C11.87 10.8531 6.26685 16.9693 6.26685 23.8663C6.26685 29.7956 11.87 31.9995 19.69 31.9995ZM19.3826 29.7225C25.1348 29.7225 29.3518 28.1085 29.3518 23.7664C29.3518 18.3345 25.1348 14.2368 19.3826 14.2368C13.6303 14.2368 9.50878 18.7157 9.50878 23.7664C9.50878 28.1085 13.6303 29.7225 19.3826 29.7225Z" fill="white"/>
</svg>
