<svg width="40" height="40" viewBox="0 0 40 40" fill="none" xmlns="http://www.w3.org/2000/svg">
<g clip-path="url(#clip0_44561_6799)">
<circle cx="20" cy="20" r="20" fill="#E5E7EB"/>
<path d="M19.4494 10.6081C19.8747 12.0779 18.7501 13.6975 17.4611 14.073C16.172 14.4486 14.4109 13.6697 13.9856 12.1999C13.5602 10.7301 14.4531 8.69357 15.7422 8.31802C17.4611 7.81726 19.0241 9.1383 19.4494 10.6081Z" fill="white"/>
<path d="M20.158 10.6081C19.7327 12.0779 20.8573 13.6975 22.1464 14.073C23.4354 14.4486 25.1965 13.6697 25.6219 12.1999C26.0472 10.7301 25.1543 8.69357 23.8653 8.31802C22.1464 7.81726 20.5834 9.1383 20.158 10.6081Z" fill="white"/>
<path d="M28.1387 21.3459C28.1387 25.0844 24.473 26.474 19.4727 26.474C14.4724 26.474 10.8896 25.0844 10.8896 21.3459C10.8896 16.9972 14.4724 13.1409 19.4727 13.1409C24.473 13.1409 28.1387 16.669 28.1387 21.3459Z" fill="white"/>
<path d="M17.8181 20.6073C17.8181 21.8317 17.0322 23.1749 15.934 23.1749C14.8358 23.1749 13.0616 22.1772 13.0616 20.3482C13.0616 18.6301 14.9782 18.019 16.9587 18.3328C18.1725 18.5251 17.8181 19.3829 17.8181 20.6073Z" fill="#E5E7EB"/>
<path d="M16.9002 20.4832C16.9002 20.6668 16.8449 20.8157 16.5687 20.8157C16.2925 20.8157 16.2373 20.6668 16.2373 20.4832C16.2373 20.2995 16.3478 20.1506 16.5687 20.1506C16.7897 20.1506 16.9002 20.2995 16.9002 20.4832Z" fill="white"/>
<path d="M21.1589 20.6075C21.1589 21.8319 21.9448 23.1751 23.0431 23.1751C24.1413 23.1751 25.9154 22.1775 25.9154 20.3485C25.9154 18.6303 23.9988 18.0192 22.0184 18.333C20.8046 18.5253 21.1589 19.3831 21.1589 20.6075Z" fill="#E5E7EB"/>
<path d="M22.0779 20.4835C22.0779 20.6672 22.1331 20.8161 22.4093 20.8161C22.6855 20.8161 22.7407 20.6672 22.7407 20.4835C22.7407 20.2999 22.6302 20.151 22.4093 20.151C22.1883 20.151 22.0779 20.2999 22.0779 20.4835Z" fill="white"/>
<path fill-rule="evenodd" clip-rule="evenodd" d="M19.7688 28.334C26.43 28.334 31.3134 26.4566 31.3134 21.4059C31.3134 15.0876 26.43 10.321 19.7688 10.321C13.1075 10.321 8.33459 15.5309 8.33459 21.4059C8.33459 26.4566 13.1075 28.334 19.7688 28.334ZM19.5065 26.3944C24.4064 26.3944 27.9985 25.0195 27.9985 21.3209C27.9985 16.6939 24.4064 13.2033 19.5065 13.2033C14.6067 13.2033 11.0958 17.0186 11.0958 21.3209C11.0958 25.0195 14.6067 26.3944 19.5065 26.3944Z" fill="white"/>
<mask id="mask0_44561_6799" style="mask-type:alpha" maskUnits="userSpaceOnUse" x="0" y="0" width="40" height="40">
<circle cx="20" cy="20" r="20" fill="#E5E7EB"/>
</mask>
<g mask="url(#mask0_44561_6799)">
<ellipse cx="19.5834" cy="37.5" rx="11.25" ry="12.5" fill="white"/>
</g>
</g>
<defs>
<clipPath id="clip0_44561_6799">
<rect width="40" height="40" fill="white"/>
</clipPath>
</defs>
</svg>
