<svg width="24" height="24" viewBox="0 0 24 24" fill="none" xmlns="http://www.w3.org/2000/svg">
<path d="M15.7726 12.9731L14.6496 11.85C14.8201 10.9603 14.5861 10.2013 13.9477 9.57309C13.3092 8.94489 12.5432 8.70386 11.6496 8.85001L10.5265 7.72696C10.7586 7.61926 10.9974 7.5417 11.2429 7.49426C11.4884 7.44683 11.7406 7.42311 11.9996 7.42311C13.1342 7.42311 14.0973 7.81895 14.889 8.61061C15.6807 9.40228 16.0765 10.3654 16.0765 11.5C16.0765 11.759 16.0544 12.0112 16.0101 12.2567C15.9659 12.5022 15.8867 12.741 15.7726 12.9731ZM18.9534 16.0846L17.8496 15.05C18.4829 14.5667 19.0496 14.0292 19.5496 13.4375C20.0496 12.8458 20.4663 12.2 20.7996 11.5C19.9663 9.81668 18.7621 8.47918 17.1871 7.48751C15.6121 6.49585 13.8829 6.00001 11.9996 6.00001C11.5163 6.00001 11.0454 6.03335 10.5871 6.10001C10.1288 6.16668 9.66625 6.26668 9.19959 6.40001L8.03424 5.23466C8.67012 4.98338 9.31851 4.79812 9.97941 4.67889C10.6403 4.55965 11.3137 4.50004 11.9996 4.50004C14.1483 4.50004 16.122 5.05837 17.9207 6.17504C19.7194 7.2917 21.1028 8.8026 22.0707 10.7077C22.1374 10.8346 22.1858 10.9625 22.2159 11.0914C22.246 11.2202 22.2611 11.3564 22.2611 11.5C22.2611 11.6436 22.2486 11.7798 22.2236 11.9087C22.1986 12.0375 22.1528 12.1654 22.0861 12.2923C21.7322 13.0449 21.288 13.7397 20.7534 14.3769C20.2188 15.0141 19.6188 15.5833 18.9534 16.0846ZM11.9996 18.5C9.89447 18.5 7.96499 17.9375 6.21116 16.8125C4.45731 15.6875 3.06308 14.2058 2.02846 12.3673C1.94513 12.2404 1.88424 12.1026 1.84579 11.9539C1.80732 11.8051 1.78809 11.6539 1.78809 11.5C1.78809 11.3462 1.80475 11.1974 1.83809 11.0539C1.87142 10.9103 1.92975 10.7699 2.01309 10.6327C2.38489 9.95323 2.80604 9.30611 3.27656 8.69136C3.74708 8.07661 4.2881 7.52565 4.89964 7.03849L2.64194 4.76539C2.50347 4.61667 2.4352 4.44007 2.43714 4.23559C2.43905 4.0311 2.51244 3.85643 2.65731 3.71156C2.80218 3.56669 2.97782 3.49426 3.18424 3.49426C3.39064 3.49426 3.56627 3.56669 3.71114 3.71156L20.288 20.2885C20.4265 20.4269 20.4999 20.5984 20.5082 20.8029C20.5165 21.0073 20.4432 21.1872 20.288 21.3423C20.1432 21.4872 19.9675 21.5596 19.7611 21.5596C19.5547 21.5596 19.3791 21.4872 19.2342 21.3423L15.715 17.8538C15.1252 18.082 14.5191 18.2468 13.8967 18.3481C13.2743 18.4493 12.6419 18.5 11.9996 18.5ZM5.95346 8.09229C5.36756 8.54485 4.84095 9.05672 4.37364 9.62789C3.90632 10.199 3.51497 10.8231 3.19959 11.5C4.03292 13.1833 5.23709 14.5208 6.81209 15.5125C8.38709 16.5042 10.1163 17 11.9996 17C12.4291 17 12.8519 16.9712 13.2679 16.9135C13.6839 16.8558 14.0971 16.7667 14.5073 16.6462L13.2419 15.35C13.0393 15.4384 12.8371 15.4984 12.6352 15.5298C12.4332 15.5612 12.2214 15.5769 11.9996 15.5769C10.865 15.5769 9.90185 15.1811 9.11019 14.3894C8.31852 13.5977 7.92269 12.6346 7.92269 11.5C7.92269 11.2782 7.93999 11.0664 7.97461 10.8644C8.00923 10.6625 8.06756 10.4603 8.14961 10.2577L5.95346 8.09229Z" fill="#9FA6B2"/>
</svg>
