<svg width="24" height="24" viewBox="0 0 24 24" fill="none" xmlns="http://www.w3.org/2000/svg">
<path d="M5.99167 18C5.71944 18 5.48611 17.8872 5.29167 17.6617C5.09722 17.4361 5 17.1678 5 16.8567C5 16.53 5.09722 16.25 5.29167 16.0167C5.48611 15.7833 5.71944 15.6667 5.99167 15.6667C6.25093 15.6667 6.47454 15.7833 6.6625 16.0167C6.85046 16.25 6.94444 16.53 6.94444 16.8567C6.94444 17.1678 6.85046 17.4361 6.6625 17.6617C6.47454 17.8872 6.25093 18 5.99167 18ZM8.88889 17.5333V16.1333H19V17.5333H8.88889ZM5.99167 12.1667C5.71944 12.1667 5.48611 12.0539 5.29167 11.8283C5.09722 11.6028 5 11.3267 5 11C5 10.6733 5.09722 10.3972 5.29167 10.1717C5.48611 9.94611 5.71944 9.83333 5.99167 9.83333C6.25093 9.83333 6.47454 9.95 6.6625 10.1833C6.85046 10.4167 6.94444 10.6889 6.94444 11C6.94444 11.3111 6.85046 11.5833 6.6625 11.8167C6.47454 12.05 6.25093 12.1667 5.99167 12.1667ZM8.88889 11.7V10.3H19V11.7H8.88889ZM5.97222 6.33333C5.7 6.33333 5.46991 6.22056 5.28194 5.995C5.09398 5.76944 5 5.49333 5 5.16667C5 4.84 5.09398 4.56389 5.28194 4.33833C5.46991 4.11278 5.7 4 5.97222 4C6.24444 4 6.47454 4.11278 6.6625 4.33833C6.85046 4.56389 6.94444 4.84 6.94444 5.16667C6.94444 5.49333 6.85046 5.76944 6.6625 5.995C6.47454 6.22056 6.24444 6.33333 5.97222 6.33333ZM8.88889 5.86667V4.46667H19V5.86667H8.88889Z" fill="#374151"/>
</svg>
