<svg width="140" height="140" viewBox="0 0 140 140" fill="none" xmlns="http://www.w3.org/2000/svg">
<path d="M61.4617 37.3833C63.7331 43.2512 59.6884 50.2864 54.5247 52.2852C49.3609 54.284 41.8461 51.7232 39.5748 45.8554C37.3034 39.9875 40.2473 31.3275 45.4111 29.3287C52.2966 26.6634 59.1904 31.5154 61.4617 37.3833Z" fill="#D1D5DB"/>
<path d="M64.3733 37.1307C63.1489 43.3025 68.3473 49.5339 73.7785 50.6114C79.2098 51.6888 86.1697 47.8693 87.3941 41.6975C88.6184 35.5256 84.2239 27.5038 78.7926 26.4263C71.5504 24.9896 65.5977 30.9588 64.3733 37.1307Z" fill="#D1D5DB"/>
<path d="M117.761 82.1277C117.761 102.892 97.6167 110.61 70.1386 110.61C42.6605 110.61 22.9719 102.892 22.9719 82.1277C22.9719 57.9747 42.6605 36.556 70.1386 36.556C97.6167 36.556 117.761 56.1518 117.761 82.1277Z" fill="#F3F4F6"/>
<path d="M104.83 81.8885C104.83 97.1102 90.7171 102.768 71.4657 102.768C52.2143 102.768 38.4204 97.1102 38.4204 81.8885C38.4204 64.1824 52.2143 48.4808 71.4657 48.4808C90.7171 48.4808 104.83 62.8461 104.83 81.8885Z" fill="#F9FAFB"/>
<path d="M69.6483 79.765C69.6483 84.7987 66.5789 90.3208 62.2895 90.3208C58.0001 90.3208 51.071 86.2194 51.071 78.7001C51.071 71.6364 58.5565 69.1243 66.2915 70.4142C71.0322 71.2048 69.6483 74.7313 69.6483 79.765Z" fill="#D1D5DB"/>
<path d="M66.0608 79.2565C66.0608 80.0115 65.8451 80.6236 64.7664 80.6236C63.6877 80.6236 63.4719 80.0115 63.4719 79.2565C63.4719 78.5014 63.9034 77.8893 64.7664 77.8893C65.6293 77.8893 66.0608 78.5014 66.0608 79.2565Z" fill="#F3F4F6"/>
<path d="M82.3423 79.765C82.3423 84.7987 85.1873 90.3208 89.163 90.3208C93.1387 90.3208 99.561 86.2194 99.561 78.7001C99.561 71.6364 92.623 69.1243 85.4537 70.4142C81.0596 71.2048 82.3423 74.7313 82.3423 79.765Z" fill="#D1D5DB"/>
<path d="M85.6678 79.2565C85.6678 80.0115 85.8678 80.6236 86.8676 80.6236C87.8674 80.6236 88.0674 80.0115 88.0674 79.2565C88.0674 78.5014 87.6675 77.8893 86.8676 77.8893C86.0678 77.8893 85.6678 78.5014 85.6678 79.2565Z" fill="#F3F4F6"/>
<path d="M71.224 87.0967C70.9766 86.7369 70.4844 86.6457 70.1246 86.8931C69.7648 87.1404 69.6737 87.6327 69.921 87.9925L71.224 87.0967ZM76.3702 85.9634L77.1178 85.7064C77.0081 85.3871 76.7078 85.1728 76.3702 85.1728C76.0326 85.1728 75.7323 85.3871 75.6225 85.7064L76.3702 85.9634ZM82.8194 87.9925C83.0667 87.6327 82.9756 87.1404 82.6158 86.8931C82.256 86.6457 81.7638 86.7369 81.5164 87.0967L82.8194 87.9925ZM69.921 87.9925C70.1587 88.3382 70.5938 88.8059 71.1783 89.1923C71.7677 89.582 72.5514 89.9163 73.4714 89.9163V88.3352C72.9419 88.3352 72.4574 88.1425 72.0503 87.8733C71.6383 87.6009 71.3486 87.278 71.224 87.0967L69.921 87.9925ZM73.4714 89.9163C74.5855 89.9163 75.425 89.1228 75.959 88.4167C76.5195 87.6755 76.9168 86.8053 77.1178 86.2204L75.6225 85.7064C75.4613 86.1755 75.1338 86.8865 74.6978 87.463C74.2353 88.0746 73.8066 88.3352 73.4714 88.3352V89.9163ZM75.6225 86.2204C75.8236 86.8053 76.2208 87.6755 76.7814 88.4167C77.3154 89.1228 78.1549 89.9163 79.269 89.9163V88.3352C78.9338 88.3352 78.5051 88.0746 78.0425 87.463C77.6066 86.8865 77.2791 86.1755 77.1178 85.7064L75.6225 86.2204ZM79.269 89.9163C80.189 89.9163 80.9727 89.582 81.5621 89.1923C82.1466 88.8059 82.5816 88.3382 82.8194 87.9925L81.5164 87.0967C81.3918 87.278 81.1021 87.6009 80.6901 87.8733C80.283 88.1425 79.7985 88.3352 79.269 88.3352V89.9163Z" fill="#D1D5DB"/>
<path d="M81.1968 85.1511C81.1968 85.8922 77.8097 86.8379 76.7349 87.1193C76.5225 87.1749 76.301 87.1749 76.0886 87.1193C75.0137 86.8379 71.6267 85.8922 71.6267 85.1511C71.6267 84.2702 74.2724 83.3282 76.4117 83.3282C78.5511 83.3282 81.1968 84.2702 81.1968 85.1511Z" fill="#D1D5DB"/>
<path d="M77.1141 60.9648C56.7757 62.2435 51.8151 55.7513 51.071 53.0119L62.4804 46.6496L75.3779 44.2637L93.236 53.5421C92.1612 55.7513 89.6212 60.1785 77.1141 60.9648Z" fill="#D1D5DB"/>
<path fill-rule="evenodd" clip-rule="evenodd" d="M72.6058 110.676C98.6615 110.676 117.763 102.957 117.763 82.1934C117.763 56.2175 98.6615 36.6217 72.6058 36.6217C46.55 36.6217 27.8806 58.0404 27.8806 82.1934C27.8806 102.957 46.55 110.676 72.6058 110.676ZM71.5817 102.701C90.7477 102.701 104.798 97.0488 104.798 81.8431C104.798 62.8208 90.7477 48.4707 71.5817 48.4707C52.4156 48.4707 38.6829 64.1557 38.6829 81.8431C38.6829 97.0488 52.4156 102.701 71.5817 102.701Z" fill="#F3F4F6"/>
<path fill-rule="evenodd" clip-rule="evenodd" d="M17.2191 65.1235C20.1086 61.8881 25.3166 62.4248 27.4855 66.1815L30.6621 71.6834C32.831 75.4401 30.6918 80.2187 26.4451 81.1034L25.0639 81.3911C24.9849 81.4075 24.9058 81.4225 24.8266 81.4359C24.7968 81.518 24.759 81.5978 24.7146 81.6742C23.4569 83.8361 22.8582 88.8169 29.0549 94.5812C35.0928 100.198 40.3123 100.606 42.7149 100.007C42.8854 99.9641 43.0624 99.952 43.2332 99.9736L43.5477 99.3501C45.5013 95.477 50.6707 94.6475 53.7381 97.7149L58.2304 102.207C61.2977 105.275 60.4682 110.444 56.5952 112.398L56.3046 112.544C56.225 112.67 56.1116 112.78 55.964 112.86C48.3144 117.011 31.1182 115.005 21.712 101.924C9.93899 85.5522 11.125 71.632 15.767 66.6651C15.8462 66.5805 15.9363 66.5154 16.0327 66.4693C16.1116 66.3695 16.1938 66.2716 16.2794 66.1758L17.2191 65.1235Z" fill="#D1D5DB"/>
<path d="M108.264 35.4461C109.527 32.5757 110.648 32.0214 112.376 31.7621C113.712 31.557 114.811 31.2475 115.27 30.2037C115.729 29.1599 115.191 28.1304 114.171 27.6818C113.175 27.2435 111.936 27.5483 111.391 28.724L107.619 27.0649C109.2 23.5985 112.475 23.1701 115.582 24.537C119.022 26.05 120.783 28.8063 119.458 31.8191C118.581 33.8118 116.971 34.5759 114.964 34.8257C113.349 35.0213 112.419 35.4617 111.752 36.98L111.606 37.3121L108.118 35.7783L108.264 35.4461ZM107.511 42.0513C106.325 41.5296 105.769 40.1528 106.325 38.9534C106.813 37.7805 108.203 37.2594 109.389 37.7811C110.528 38.282 111.107 39.6692 110.619 40.842C110.063 42.0415 108.65 42.5521 107.511 42.0513Z" fill="#D1D5DB"/>
<path d="M119.826 43.5494C121.494 41.8281 122.445 41.7291 123.752 42.0027C124.764 42.2108 125.633 42.2812 126.24 41.6553C126.846 41.0294 126.734 40.1486 126.123 39.5559C125.525 38.977 124.557 38.8662 123.853 39.5637L121.592 37.372C123.646 35.3085 126.107 35.872 127.97 37.6777C130.033 39.6764 130.562 42.1195 128.811 43.9261C127.653 45.121 126.296 45.2404 124.792 44.8859C123.583 44.5968 122.799 44.6652 121.917 45.5756L121.724 45.7748L119.633 43.7485L119.826 43.5494ZM117.53 48.0821C116.819 47.393 116.787 46.2588 117.504 45.5471C118.165 44.8363 119.3 44.8324 120.011 45.5216C120.694 46.1832 120.74 47.3312 120.079 48.042C119.362 48.7537 118.213 48.7438 117.53 48.0821Z" fill="#D1D5DB"/>
</svg>
