<svg width="40" height="40" viewBox="0 0 40 40" fill="none" xmlns="http://www.w3.org/2000/svg">
<g clip-path="url(#clip0_28788_27828)">
<circle cx="20" cy="20" r="20" fill="#D1D5DB"/>
<path d="M19.3749 8.72951C19.8853 10.4932 18.5358 12.4367 16.989 12.8873C15.4421 13.338 13.3289 12.4033 12.8185 10.6396C12.3081 8.87588 13.3795 6.43213 14.9264 5.98149C16.989 5.38059 18.8645 6.96579 19.3749 8.72951Z" fill="white"/>
<path d="M20.2257 8.72951C19.7153 10.4932 21.0648 12.4367 22.6116 12.8873C24.1585 13.338 26.2717 12.4033 26.7821 10.6396C27.2925 8.87588 26.2211 6.43213 24.6742 5.98149C22.6116 5.38059 20.736 6.96579 20.2257 8.72951Z" fill="white"/>
<path d="M29.8018 21.6147C29.8018 26.1008 25.4031 27.7683 19.4029 27.7683C13.4027 27.7683 9.10352 26.1008 9.10352 21.6147C9.10352 16.3964 13.4027 11.7689 19.4029 11.7689C25.4031 11.7689 29.8018 16.0026 29.8018 21.6147Z" fill="white"/>
<path d="M17.4176 20.7286C17.4176 22.1978 16.4746 23.8096 15.1567 23.8096C13.8388 23.8096 11.71 22.6125 11.71 20.4177C11.71 18.356 14.0098 17.6227 16.3862 17.9992C17.8428 18.23 17.4176 19.2593 17.4176 20.7286Z" fill="#D1D5DB"/>
<path d="M16.3169 20.5796C16.3169 20.8 16.2506 20.9787 15.9192 20.9787C15.5878 20.9787 15.5215 20.8 15.5215 20.5796C15.5215 20.3592 15.6541 20.1806 15.9192 20.1806C16.1843 20.1806 16.3169 20.3592 16.3169 20.5796Z" fill="white"/>
<path d="M21.4261 20.7285C21.4261 22.1977 22.3692 23.8095 23.6871 23.8095C25.0049 23.8095 27.1338 22.6124 27.1338 20.4176C27.1338 18.3559 24.834 17.6226 22.4575 17.9991C21.001 18.2299 21.4261 19.2592 21.4261 20.7285Z" fill="#D1D5DB"/>
<path d="M22.5288 20.5796C22.5288 20.8 22.5951 20.9787 22.9265 20.9787C23.2579 20.9787 23.3242 20.8 23.3242 20.5796C23.3242 20.3592 23.1917 20.1806 22.9265 20.1806C22.6614 20.1806 22.5288 20.3592 22.5288 20.5796Z" fill="white"/>
<path fill-rule="evenodd" clip-rule="evenodd" d="M19.7578 30.0001C27.7511 30.0001 33.611 27.7473 33.611 21.6867C33.611 14.1048 27.7511 8.38515 19.7578 8.38515C11.7645 8.38515 6.03711 14.6369 6.03711 21.6867C6.03711 27.7473 11.7645 30.0001 19.7578 30.0001ZM19.4432 27.6725C25.3229 27.6725 29.6333 26.0228 29.6333 21.5845C29.6333 16.0322 25.3229 11.8437 19.4432 11.8437C13.5635 11.8437 9.35058 16.4219 9.35058 21.5845C9.35058 26.0228 13.5635 27.6725 19.4432 27.6725Z" fill="white"/>
<mask id="mask0_28788_27828" style="mask-type:alpha" maskUnits="userSpaceOnUse" x="0" y="0" width="40" height="40">
<circle cx="20" cy="20" r="20" fill="#9CA3AF"/>
</mask>
<g mask="url(#mask0_28788_27828)">
<ellipse cx="19.583" cy="37.5" rx="11.25" ry="12.5" fill="white"/>
</g>
</g>
<defs>
<clipPath id="clip0_28788_27828">
<rect width="40" height="40" fill="white"/>
</clipPath>
</defs>
</svg>
