<svg width="32" height="32" viewBox="0 0 32 32" fill="none" xmlns="http://www.w3.org/2000/svg">
<g clip-path="url(#clip0_28788_27850)">
<circle cx="16" cy="16" r="16" fill="#D1D5DB"/>
<path d="M15.4991 6.98355C15.9074 8.39452 14.8279 9.94928 13.5904 10.3098C12.3529 10.6703 10.6623 9.92259 10.254 8.51162C9.84572 7.10064 10.7028 5.14564 11.9403 4.78513C13.5904 4.30441 15.0908 5.57257 15.4991 6.98355Z" fill="white"/>
<path d="M16.1796 6.98355C15.7713 8.39452 16.8508 9.94928 18.0883 10.3098C19.3258 10.6703 21.0164 9.92259 21.4247 8.51162C21.833 7.10064 20.9759 5.14564 19.7384 4.78513C18.0883 4.30441 16.5879 5.57257 16.1796 6.98355Z" fill="white"/>
<path d="M23.8409 17.2918C23.8409 20.8807 20.3219 22.2147 15.5218 22.2147C10.7216 22.2147 7.28223 20.8807 7.28223 17.2918C7.28223 13.1172 10.7216 9.41524 15.5218 9.41524C20.3219 9.41524 23.8409 12.8022 23.8409 17.2918Z" fill="white"/>
<path d="M13.9333 16.5829C13.9333 17.7583 13.1789 19.0477 12.1246 19.0477C11.0703 19.0477 9.36719 18.09 9.36719 16.3342C9.36719 14.6848 11.207 14.0982 13.1082 14.3994C14.2735 14.584 13.9333 15.4075 13.9333 16.5829Z" fill="#D1D5DB"/>
<path d="M13.0523 16.4637C13.0523 16.64 12.9993 16.7829 12.7342 16.7829C12.469 16.7829 12.416 16.64 12.416 16.4637C12.416 16.2874 12.5221 16.1444 12.7342 16.1444C12.9463 16.1444 13.0523 16.2874 13.0523 16.4637Z" fill="white"/>
<path d="M17.1399 16.5828C17.1399 17.7582 17.8944 19.0476 18.9487 19.0476C20.003 19.0476 21.7061 18.0899 21.7061 16.3341C21.7061 14.6847 19.8662 14.0981 17.965 14.3993C16.7998 14.5839 17.1399 15.4074 17.1399 16.5828Z" fill="#D1D5DB"/>
<path d="M18.0219 16.4637C18.0219 16.64 18.0749 16.7829 18.34 16.7829C18.6052 16.7829 18.6582 16.64 18.6582 16.4637C18.6582 16.2874 18.5521 16.1444 18.34 16.1444C18.1279 16.1444 18.0219 16.2874 18.0219 16.4637Z" fill="white"/>
<path fill-rule="evenodd" clip-rule="evenodd" d="M15.8056 24.0002C22.2003 24.0002 26.8882 22.1979 26.8882 17.3494C26.8882 11.2839 22.2003 6.7082 15.8056 6.7082C9.41097 6.7082 4.8291 11.7096 4.8291 17.3494C4.8291 22.1979 9.41097 24.0002 15.8056 24.0002ZM15.5541 22.138C20.2579 22.138 23.7062 20.8182 23.7062 17.2676C23.7062 12.8258 20.2579 9.47495 15.5541 9.47495C10.8504 9.47495 7.48008 13.1375 7.48008 17.2676C7.48008 20.8182 10.8504 22.138 15.5541 22.138Z" fill="white"/>
<mask id="mask0_28788_27850" style="mask-type:alpha" maskUnits="userSpaceOnUse" x="0" y="0" width="32" height="32">
<circle cx="16" cy="16" r="16" fill="#9CA3AF"/>
</mask>
<g mask="url(#mask0_28788_27850)">
<ellipse cx="15.667" cy="30" rx="9" ry="10" fill="white"/>
</g>
</g>
<defs>
<clipPath id="clip0_28788_27850">
<rect width="32" height="32" fill="white"/>
</clipPath>
</defs>
</svg>
