<svg width="24" height="24" viewBox="0 0 24 24" fill="none" xmlns="http://www.w3.org/2000/svg">
<g clip-path="url(#clip0_28788_27872)">
<circle cx="12" cy="12" r="12" fill="#D1D5DB"/>
<path d="M11.6244 5.23766C11.9306 6.29589 11.1209 7.46197 10.1928 7.73235C9.26469 8.00274 7.99673 7.44195 7.69051 6.38371C7.38429 5.32548 8.02713 3.85923 8.95523 3.58885C10.1928 3.22831 11.3181 4.17943 11.6244 5.23766Z" fill="white"/>
<path d="M12.1344 5.23766C11.8282 6.29589 12.6379 7.46197 13.566 7.73235C14.4941 8.00274 15.7621 7.44195 16.0683 6.38371C16.3745 5.32548 15.7317 3.85923 14.8036 3.58885C13.566 3.22831 12.4407 4.17943 12.1344 5.23766Z" fill="white"/>
<path d="M17.8809 12.9689C17.8809 15.6605 15.2417 16.661 11.6416 16.661C8.04145 16.661 5.46191 15.6605 5.46191 12.9689C5.46191 9.83793 8.04145 7.06142 11.6416 7.06142C15.2417 7.06142 17.8809 9.60163 17.8809 12.9689Z" fill="white"/>
<path d="M10.45 12.4372C10.45 13.3187 9.88415 14.2858 9.09343 14.2858C8.30271 14.2858 7.02539 13.5675 7.02539 12.2507C7.02539 11.0136 8.40528 10.5737 9.83116 10.7996C10.7051 10.938 10.45 11.5556 10.45 12.4372Z" fill="#D1D5DB"/>
<path d="M9.78974 12.3479C9.78974 12.4801 9.74997 12.5873 9.55112 12.5873C9.35227 12.5873 9.3125 12.4801 9.3125 12.3479C9.3125 12.2156 9.39204 12.1084 9.55112 12.1084C9.7102 12.1084 9.78974 12.2156 9.78974 12.3479Z" fill="white"/>
<path d="M12.8547 12.4372C12.8547 13.3188 13.4205 14.2859 14.2113 14.2859C15.002 14.2859 16.2793 13.5676 16.2793 12.2507C16.2793 11.0137 14.8994 10.5737 13.4735 10.7996C12.5996 10.9381 12.8547 11.5557 12.8547 12.4372Z" fill="#D1D5DB"/>
<path d="M13.5169 12.3479C13.5169 12.4801 13.5567 12.5873 13.7555 12.5873C13.9544 12.5873 13.9941 12.4801 13.9941 12.3479C13.9941 12.2156 13.9146 12.1084 13.7555 12.1084C13.5964 12.1084 13.5169 12.2156 13.5169 12.3479Z" fill="white"/>
<path fill-rule="evenodd" clip-rule="evenodd" d="M11.8545 18.0001C16.6504 18.0001 20.1664 16.6485 20.1664 13.0121C20.1664 8.46295 16.6504 5.03115 11.8545 5.03115C7.05848 5.03115 3.62207 8.78218 3.62207 13.0121C3.62207 16.6485 7.05848 18.0001 11.8545 18.0001ZM11.6656 16.6034C15.1934 16.6034 17.7797 15.6136 17.7797 12.9506C17.7797 9.61928 15.1934 7.10615 11.6656 7.10615C8.1378 7.10615 5.61006 9.85306 5.61006 12.9506C5.61006 15.6136 8.1378 16.6034 11.6656 16.6034Z" fill="white"/>
<mask id="mask0_28788_27872" style="mask-type:alpha" maskUnits="userSpaceOnUse" x="0" y="0" width="24" height="24">
<circle cx="12" cy="12" r="12" fill="#9CA3AF"/>
</mask>
<g mask="url(#mask0_28788_27872)">
<ellipse cx="11.75" cy="22.5" rx="6.75" ry="7.5" fill="white"/>
</g>
</g>
<defs>
<clipPath id="clip0_28788_27872">
<rect width="24" height="24" fill="white"/>
</clipPath>
</defs>
</svg>
