<svg width="40" height="41" viewBox="0 0 40 41" fill="none" xmlns="http://www.w3.org/2000/svg">
<rect y="0.0168457" width="40" height="40" rx="11.1782" fill="#3692FF"/>
<path d="M19.3143 11.1533C19.8136 12.873 18.4934 14.7679 16.9801 15.2073C15.4668 15.6467 13.3994 14.7354 12.9001 13.0157C12.4008 11.2961 13.4489 8.91335 14.9622 8.47396C16.9801 7.88807 18.815 9.43368 19.3143 11.1533Z" fill="#222327"/>
<path d="M20.1465 11.1533C19.6472 12.873 20.9674 14.7679 22.4807 15.2073C23.994 15.6467 26.0614 14.7354 26.5607 13.0157C27.06 11.2961 26.0119 8.91335 24.4986 8.47396C22.4807 7.88807 20.6458 9.43368 20.1465 11.1533Z" fill="#222327"/>
<path d="M29.5171 23.7165C29.5171 28.0905 25.2137 29.7164 19.3436 29.7164C13.4735 29.7164 9.26746 28.0905 9.26746 23.7165C9.26746 18.6286 13.4735 14.1167 19.3436 14.1167C25.2137 14.1167 29.5171 18.2446 29.5171 23.7165Z" fill="#F3D6DD"/>
<path d="M17.4004 22.8528C17.4004 24.2853 16.4778 25.8569 15.1885 25.8569C13.8992 25.8569 11.8165 24.6896 11.8165 22.5497C11.8165 20.5395 14.0665 19.8245 16.3914 20.1916C17.8164 20.4166 17.4004 21.4203 17.4004 22.8528Z" fill="#222327"/>
<path d="M16.322 22.7083C16.322 22.9232 16.2571 23.0974 15.9329 23.0974C15.6087 23.0974 15.5438 22.9232 15.5438 22.7083C15.5438 22.4934 15.6735 22.3192 15.9329 22.3192C16.1923 22.3192 16.322 22.4934 16.322 22.7083Z" fill="white"/>
<path d="M21.3221 22.8529C21.3221 24.2855 22.2447 25.857 23.534 25.857C24.8233 25.857 26.906 24.6898 26.906 22.5498C26.906 20.5396 24.6561 19.8247 22.3311 20.1918C20.9061 20.4168 21.3221 21.4204 21.3221 22.8529Z" fill="#222327"/>
<path d="M22.4018 22.7083C22.4018 22.9232 22.4666 23.0974 22.7909 23.0974C23.1151 23.0974 23.1799 22.9232 23.1799 22.7083C23.1799 22.4934 23.0502 22.3192 22.7909 22.3192C22.5315 22.3192 22.4018 22.4934 22.4018 22.7083Z" fill="white"/>
<path d="M17.8751 24.9241C17.7964 24.8096 17.6398 24.7806 17.5254 24.8593C17.4109 24.938 17.3819 25.0946 17.4606 25.2091L17.8751 24.9241ZM19.3178 24.6166L19.5557 24.5348C19.5207 24.4333 19.4252 24.3651 19.3178 24.3651C19.2104 24.3651 19.1149 24.4333 19.08 24.5348L19.3178 24.6166ZM21.175 25.2091C21.2537 25.0946 21.2247 24.938 21.1103 24.8593C20.9958 24.7806 20.8392 24.8096 20.7605 24.9241L21.175 25.2091ZM17.4606 25.2091C17.5301 25.3102 17.6564 25.4457 17.8256 25.5576C17.9964 25.6705 18.2245 25.7681 18.4928 25.7681V25.2651C18.3487 25.2651 18.2158 25.2126 18.103 25.138C17.9887 25.0624 17.9087 24.9729 17.8751 24.9241L17.4606 25.2091ZM18.4928 25.7681C18.823 25.7681 19.0688 25.5333 19.2219 25.3308C19.3835 25.1171 19.4978 24.8667 19.5557 24.6983L19.08 24.5348C19.0347 24.6664 18.9427 24.8661 18.8207 25.0274C18.6903 25.1998 18.5752 25.2651 18.4928 25.2651V25.7681ZM19.08 24.6983C19.1379 24.8667 19.2521 25.1171 19.4137 25.3308C19.5669 25.5333 19.8127 25.7681 20.1428 25.7681V25.2651C20.0604 25.2651 19.9453 25.1998 19.8149 25.0274C19.6929 24.8661 19.6009 24.6664 19.5557 24.5348L19.08 24.6983ZM20.1428 25.7681C20.4112 25.7681 20.6392 25.6705 20.81 25.5576C20.9792 25.4457 21.1055 25.3102 21.175 25.2091L20.7605 24.9241C20.727 24.9729 20.647 25.0624 20.5326 25.138C20.4198 25.2126 20.2869 25.2651 20.1428 25.2651V25.7681Z" fill="#222327"/>
<path d="M20.691 24.3853C20.691 24.5939 19.7483 24.8594 19.4316 24.9427C19.364 24.9605 19.2944 24.9605 19.2268 24.9427C18.9101 24.8594 17.9674 24.5939 17.9674 24.3853C17.9674 24.1347 18.7203 23.8666 19.3292 23.8666C19.938 23.8666 20.691 24.1347 20.691 24.3853Z" fill="#222327"/>
<path d="M19.1664 17.7168C15.3822 17.7168 13.9915 16.3919 13.7665 15.6169L15.5664 13.6669L19.4664 12.9919L24.8663 15.6169C24.5413 16.2419 22.9548 17.7168 19.1664 17.7168Z" fill="#222327"/>
<path fill-rule="evenodd" clip-rule="evenodd" d="M19.69 31.8917C27.5101 31.8917 33.2429 29.6952 33.2429 23.7859C33.2429 16.3934 27.5101 10.8167 19.69 10.8167C11.87 10.8167 6.26685 16.9122 6.26685 23.7859C6.26685 29.6952 11.87 31.8917 19.69 31.8917ZM19.3825 29.6223C25.1348 29.6223 29.3517 28.0137 29.3517 23.6863C29.3517 18.2728 25.1348 14.1888 19.3825 14.1888C13.6303 14.1888 9.50876 18.6527 9.50876 23.6863C9.50876 28.0137 13.6303 29.6223 19.3825 29.6223Z" fill="white"/>
</svg>
