<svg width="140" height="140" viewBox="0 0 140 140" fill="none" xmlns="http://www.w3.org/2000/svg">
<path d="M77.0454 20.0026L87.7239 20.0114L85.5782 32.112V32.112C89.2725 34.8331 91.0723 39.4362 90.2034 43.9414L87.336 58.8098L77.3694 58.8016L74.9641 43.6891C74.2633 39.2857 76.0111 34.8492 79.5271 32.107V32.107L77.0454 20.0026Z" fill="#E5E7EB"/>
<rect x="25.0498" y="58.7585" width="89.9501" height="60.6544" rx="6.37732" transform="rotate(0.0471622 25.0498 58.7585)" fill="#E5E7EB"/>
<path fill-rule="evenodd" clip-rule="evenodd" d="M71.0484 58.7964L91.6976 76.2355L88.7277 76.5959L89.0183 79.408L86.1228 79.6803L86.339 82.5805L83.4435 82.8528L83.6596 85.753L80.7642 86.0253L80.9803 88.9255L45.2803 58.7752L71.0484 58.7964Z" fill="#F3F4F6"/>
<path d="M67.5565 84.4393C67.8397 85.6532 66.8517 86.9214 65.7834 87.1706C64.7152 87.4199 63.3119 86.7097 63.0286 85.4958C62.7454 84.2818 63.5625 82.6645 64.6307 82.4152C66.0551 82.0828 67.2733 83.2254 67.5565 84.4393Z" fill="#F3F4F6"/>
<path d="M73.0071 84.4857C72.5962 85.6626 73.4436 87.0288 74.4792 87.3904C75.5148 87.752 76.9858 87.1953 77.3967 86.0184C77.8076 84.8416 77.1674 83.1464 76.1318 82.7848C74.7509 82.3026 73.418 83.3089 73.0071 84.4857Z" fill="#F3F4F6"/>
<path d="M78.1246 91.3978C77.9346 94.9546 74.3906 96.0912 69.6527 95.8382C64.9147 95.5852 61.5905 94.0818 61.7804 90.525C62.0013 86.3878 64.7825 83.2239 70.3105 83.5191C75.8385 83.8143 78.3622 86.9483 78.1246 91.3978Z" fill="#F3F4F6"/>
<path d="M68.8723 89.8348C68.8172 90.8666 68.1183 91.9644 67.2262 91.9168C66.334 91.8691 64.9377 90.9514 65.02 89.4101C65.0973 87.9622 66.6818 87.5304 68.2765 87.8807C69.2539 88.0955 68.9274 88.803 68.8723 89.8348Z" fill="#E5E7EB"/>
<path d="M67.2125 89.5919C67.2017 89.794 67.2539 89.9611 67.5589 89.9774C67.8638 89.9936 67.9335 89.8331 67.9443 89.631C67.9551 89.4289 67.8419 89.2586 67.598 89.2455C67.354 89.2325 67.2233 89.3898 67.2125 89.5919Z" fill="white"/>
<path d="M71.1463 89.9562C71.0912 90.988 71.6692 92.154 72.5614 92.2017C73.4535 92.2493 74.9396 91.4856 75.022 89.9442C75.0993 88.4963 73.5698 87.8983 71.9469 88.0767C70.9522 88.1861 71.2014 88.9244 71.1463 89.9562Z" fill="#E5E7EB"/>
<path d="M72.8226 89.8916C72.8118 90.0937 72.7421 90.2543 72.4372 90.238C72.1323 90.2217 72.08 90.0546 72.0908 89.8525C72.1016 89.6505 72.2323 89.4931 72.4763 89.5062C72.7202 89.5192 72.8334 89.6895 72.8226 89.8916Z" fill="white"/>
<rect x="29.6777" y="50.9315" width="38.7987" height="7.83093" rx="1.06289" transform="rotate(0.0471622 29.6777 50.9315)" fill="#E5E7EB"/>
<rect x="27.1787" y="45.2389" width="34.8832" height="5.69522" rx="1.06289" transform="rotate(0.0471622 27.1787 45.2389)" fill="#E5E7EB"/>
<rect x="31.8057" y="39.5691" width="34.8832" height="5.69522" rx="1.06289" transform="rotate(0.0471622 31.8057 39.5691)" fill="#E5E7EB"/>
</svg>
