<svg width="16" height="16" viewBox="0 0 16 16" fill="none" xmlns="http://www.w3.org/2000/svg">
<path d="M3.55727 9.31157C3.40756 9.18016 3.28779 9.07475 3.20001 8.99739V8.95147L3.02427 8.77574C2.33047 8.08193 1.93334 7.16547 1.93334 6.2V6.07612C1.99481 4.2062 3.59187 2.66667 5.46668 2.66667C5.74496 2.66667 6.11417 2.76344 6.48222 2.96162C6.82955 3.14864 7.13442 3.40383 7.33686 3.68842C7.63135 4.31494 8.53914 4.30366 8.81154 3.65457C8.97928 3.36092 9.27327 3.0955 9.62558 2.89902C9.99321 2.694 10.3597 2.6 10.6 2.6C12.5293 2.6 14.0717 4.12742 14.1333 6.07581V6.2C14.1333 7.24201 13.7299 8.14473 13.0612 8.75771L12.8667 8.93606V8.97957C12.7656 9.06525 12.6353 9.17766 12.4834 9.30974C12.1462 9.6029 11.6948 9.99999 11.2033 10.4332C11.0456 10.5722 10.8837 10.7149 10.7201 10.8592C9.86391 11.6143 8.95937 12.4119 8.346 12.9417C8.16948 13.0861 7.8972 13.0861 7.72068 12.9417C6.98847 12.3093 5.82586 11.2962 4.83651 10.4316C4.34088 9.9984 3.88914 9.60286 3.55727 9.31157Z" stroke="#4B5563" stroke-width="1.2"/>
</svg>
