<svg width="40" height="41" viewBox="0 0 40 41" fill="none" xmlns="http://www.w3.org/2000/svg">
<rect y="0.0166016" width="40" height="40.1354" rx="11.1782" fill="#3692FF"/>
<path d="M19.3141 11.1912C19.8134 12.9167 18.4932 14.818 16.9799 15.2589C15.4666 15.6998 13.3991 14.7854 12.8998 13.0599C12.4005 11.3344 13.4487 8.94363 14.962 8.50276C16.9799 7.91488 18.8148 9.46572 19.3141 11.1912Z" fill="#222327"/>
<path d="M20.1463 11.1912C19.647 12.9167 20.9673 14.818 22.4806 15.2589C23.9939 15.6998 26.0613 14.7854 26.5606 13.0599C27.0599 11.3344 26.0117 8.94363 24.4984 8.50276C22.4806 7.91488 20.6456 9.46572 20.1463 11.1912Z" fill="#222327"/>
<path d="M29.5167 23.7964C29.5167 28.1852 25.2133 29.8166 19.3432 29.8166C13.4731 29.8166 9.26709 28.1852 9.26709 23.7964C9.26709 18.6912 13.4731 14.1641 19.3432 14.1641C25.2133 14.1641 29.5167 18.306 29.5167 23.7964Z" fill="#F3D6DD"/>
<path d="M17.4003 22.9299C17.4003 24.3673 16.4777 25.9441 15.1884 25.9441C13.8991 25.9441 11.8164 24.7729 11.8164 22.6258C11.8164 20.6087 14.0664 19.8914 16.3913 20.2597C17.8163 20.4855 17.4003 21.4925 17.4003 22.9299Z" fill="#222327"/>
<path d="M16.3219 22.7849C16.3219 23.0005 16.257 23.1753 15.9328 23.1753C15.6085 23.1753 15.5437 23.0005 15.5437 22.7849C15.5437 22.5693 15.6734 22.3945 15.9328 22.3945C16.1922 22.3945 16.3219 22.5693 16.3219 22.7849Z" fill="white"/>
<path d="M21.3221 22.9299C21.3221 24.3673 22.2447 25.9441 23.534 25.9441C24.8233 25.9441 26.906 24.7729 26.906 22.6258C26.906 20.6087 24.6561 19.8914 22.3311 20.2597C20.9061 20.4855 21.3221 21.4925 21.3221 22.9299Z" fill="#222327"/>
<path d="M22.4015 22.7849C22.4015 23.0005 22.4664 23.1753 22.7906 23.1753C23.1148 23.1753 23.1797 23.0005 23.1797 22.7849C23.1797 22.5693 23.05 22.3945 22.7906 22.3945C22.5312 22.3945 22.4015 22.5693 22.4015 22.7849Z" fill="white"/>
<path d="M17.875 25.0096C17.7964 24.895 17.6399 24.8657 17.5253 24.9442C17.4107 25.0227 17.3815 25.1793 17.46 25.2939L17.875 25.0096ZM19.3174 24.7002L19.5554 24.6187C19.5205 24.517 19.4249 24.4487 19.3174 24.4487C19.21 24.4487 19.1144 24.517 19.0795 24.6187L19.3174 24.7002ZM21.1749 25.2939C21.2534 25.1793 21.2242 25.0227 21.1096 24.9442C20.995 24.8657 20.8385 24.895 20.7599 25.0096L21.1749 25.2939ZM17.46 25.2939C17.5295 25.3953 17.6557 25.5312 17.8249 25.6435C17.9957 25.7568 18.2239 25.8547 18.4925 25.8547V25.3517C18.3485 25.3517 18.2158 25.2992 18.103 25.2243C17.9886 25.1485 17.9086 25.0586 17.875 25.0096L17.46 25.2939ZM18.4925 25.8547C18.823 25.8547 19.0688 25.619 19.2218 25.416C19.3834 25.2016 19.4975 24.9506 19.5554 24.7817L19.0795 24.6187C19.0342 24.7508 18.9422 24.9513 18.8201 25.1132C18.6895 25.2865 18.5744 25.3517 18.4925 25.3517V25.8547ZM19.0795 24.7817C19.1374 24.9506 19.2515 25.2016 19.4131 25.416C19.5661 25.619 19.8119 25.8547 20.1424 25.8547V25.3517C20.0605 25.3517 19.9454 25.2865 19.8148 25.1132C19.6927 24.9513 19.6006 24.7508 19.5554 24.6187L19.0795 24.7817ZM20.1424 25.8547C20.411 25.8547 20.6392 25.7568 20.81 25.6435C20.9792 25.5312 21.1054 25.3953 21.1749 25.2939L20.7599 25.0096C20.7263 25.0586 20.6463 25.1485 20.5319 25.2243C20.4191 25.2992 20.2863 25.3517 20.1424 25.3517V25.8547Z" fill="#222327"/>
<path d="M20.6906 24.4678C20.6906 24.677 19.7486 24.9433 19.4315 25.027C19.3638 25.0449 19.2939 25.0449 19.2261 25.027C18.9091 24.9433 17.967 24.677 17.967 24.4678C17.967 24.2162 18.72 23.9473 19.3288 23.9473C19.9376 23.9473 20.6906 24.2162 20.6906 24.4678Z" fill="#222327"/>
<path d="M19.166 17.7761C15.3818 17.7761 13.9911 16.4466 13.7661 15.669L15.5661 13.7124L19.466 13.0352L24.8659 15.669C24.5409 16.2961 22.9544 17.7761 19.166 17.7761Z" fill="#222327"/>
<path fill-rule="evenodd" clip-rule="evenodd" d="M19.6898 31.9989C27.5098 31.9989 33.2427 29.795 33.2427 23.8657C33.2427 16.4482 27.5098 10.8525 19.6898 10.8525C11.8698 10.8525 6.2666 16.9687 6.2666 23.8657C6.2666 29.795 11.8698 31.9989 19.6898 31.9989ZM19.3823 29.7218C25.1345 29.7218 29.3515 28.1079 29.3515 23.7658C29.3515 18.3339 25.1345 14.2362 19.3823 14.2362C13.6301 14.2362 9.50854 18.7151 9.50854 23.7658C9.50854 28.1079 13.6301 29.7218 19.3823 29.7218Z" fill="white"/>
</svg>
