<svg width="24" height="24" viewBox="0 0 24 24" fill="none" xmlns="http://www.w3.org/2000/svg">
<g clip-path="url(#clip0_0_3113)">
<path d="M12.0021 15.5769C13.1352 15.5769 14.0976 15.1803 14.8892 14.3872C15.6809 13.594 16.0767 12.6308 16.0767 11.4977C16.0767 10.3646 15.6802 9.40227 14.887 8.61061C14.0938 7.81894 13.1307 7.42311 11.9976 7.42311C10.8645 7.42311 9.9021 7.81969 9.11044 8.61286C8.31877 9.40604 7.92294 10.3692 7.92294 11.5023C7.92294 12.6354 8.31952 13.5977 9.11269 14.3894C9.90587 15.1811 10.869 15.5769 12.0021 15.5769ZM11.9998 14.2C11.2498 14.2 10.6123 13.9375 10.0873 13.4125C9.56234 12.8875 9.29984 12.25 9.29984 11.5C9.29984 10.75 9.56234 10.1125 10.0873 9.58751C10.6123 9.06251 11.2498 8.80001 11.9998 8.80001C12.7498 8.80001 13.3873 9.06251 13.9123 9.58751C14.4373 10.1125 14.6998 10.75 14.6998 11.5C14.6998 12.25 14.4373 12.8875 13.9123 13.4125C13.3873 13.9375 12.7498 14.2 11.9998 14.2ZM11.9998 18.5C9.89472 18.5 7.96941 17.9384 6.22391 16.8154C4.47839 15.6923 3.08513 14.2147 2.04411 12.3827C1.96078 12.2391 1.89988 12.0944 1.86141 11.9486C1.82294 11.8027 1.80371 11.653 1.80371 11.4995C1.80371 11.346 1.82294 11.1965 1.86141 11.051C1.89988 10.9055 1.96078 10.7609 2.04411 10.6173C3.08513 8.78528 4.47839 7.30772 6.22391 6.18466C7.96941 5.06157 9.89472 4.50003 11.9998 4.50003C14.105 4.50003 16.0303 5.06157 17.7758 6.18466C19.5213 7.30772 20.9145 8.78528 21.9556 10.6173C22.0389 10.7609 22.0998 10.9056 22.1383 11.0515C22.1767 11.1973 22.196 11.347 22.196 11.5005C22.196 11.654 22.1767 11.8035 22.1383 11.949C22.0998 12.0945 22.0389 12.2391 21.9556 12.3827C20.9145 14.2147 19.5213 15.6923 17.7758 16.8154C16.0303 17.9384 14.105 18.5 11.9998 18.5ZM11.9998 17C13.8832 17 15.6123 16.5042 17.1873 15.5125C18.7623 14.5208 19.9665 13.1833 20.7998 11.5C19.9665 9.81667 18.7623 8.47917 17.1873 7.48751C15.6123 6.49584 13.8832 6.00001 11.9998 6.00001C10.1165 6.00001 8.38734 6.49584 6.81234 7.48751C5.23734 8.47917 4.03317 9.81667 3.19984 11.5C4.03317 13.1833 5.23734 14.5208 6.81234 15.5125C8.38734 16.5042 10.1165 17 11.9998 17Z" fill="#4B5563"/>
<path d="M15.7726 12.973L14.6496 11.85C14.8201 10.9602 14.5861 10.2013 13.9477 9.57307C13.3092 8.94487 12.5432 8.70385 11.6496 8.85L10.5265 7.72695C10.7586 7.61925 10.9974 7.54168 11.2429 7.49425C11.4884 7.44681 11.7406 7.4231 11.9996 7.4231C13.1342 7.4231 14.0973 7.81893 14.889 8.6106C15.6807 9.40226 16.0765 10.3654 16.0765 11.5C16.0765 11.759 16.0544 12.0112 16.0101 12.2567C15.9659 12.5022 15.8867 12.741 15.7726 12.973ZM18.9534 16.0846L17.8496 15.05C18.4829 14.5667 19.0496 14.0292 19.5496 13.4375C20.0496 12.8458 20.4663 12.2 20.7996 11.5C19.9663 9.81666 18.7621 8.47916 17.1871 7.4875C15.6121 6.49583 13.8829 6 11.9996 6C11.5163 6 11.0454 6.03333 10.5871 6.1C10.1288 6.16666 9.66625 6.26666 9.19959 6.4L8.03424 5.23465C8.67012 4.98336 9.31851 4.79811 9.97941 4.67887C10.6403 4.55964 11.3137 4.50002 11.9996 4.50002C14.1483 4.50002 16.122 5.05835 17.9207 6.17502C19.7194 7.29169 21.1028 8.80258 22.0707 10.7077C22.1374 10.8346 22.1858 10.9625 22.2159 11.0913C22.246 11.2202 22.2611 11.3564 22.2611 11.5C22.2611 11.6436 22.2486 11.7798 22.2236 11.9086C22.1986 12.0375 22.1528 12.1654 22.0861 12.2923C21.7322 13.0449 21.288 13.7397 20.7534 14.3769C20.2188 15.0141 19.6188 15.5833 18.9534 16.0846ZM11.9996 18.5C9.89447 18.5 7.96499 17.9375 6.21116 16.8125C4.45731 15.6875 3.06308 14.2057 2.02846 12.3673C1.94513 12.2404 1.88424 12.1026 1.84579 11.9538C1.80732 11.8051 1.78809 11.6538 1.78809 11.5C1.78809 11.3461 1.80475 11.1974 1.83809 11.0538C1.87142 10.9103 1.92975 10.7699 2.01309 10.6327C2.38489 9.95321 2.80604 9.3061 3.27656 8.69135C3.74708 8.0766 4.2881 7.52564 4.89964 7.03847L2.64194 4.76537C2.50347 4.61666 2.4352 4.44005 2.43714 4.23557C2.43905 4.03109 2.51244 3.85641 2.65731 3.71155C2.80218 3.56668 2.97782 3.49425 3.18424 3.49425C3.39064 3.49425 3.56627 3.56668 3.71114 3.71155L20.288 20.2884C20.4265 20.4269 20.4999 20.5984 20.5082 20.8028C20.5165 21.0073 20.4432 21.1871 20.288 21.3423C20.1432 21.4871 19.9675 21.5596 19.7611 21.5596C19.5547 21.5596 19.3791 21.4871 19.2342 21.3423L15.715 17.8538C15.1252 18.082 14.5191 18.2468 13.8967 18.348C13.2743 18.4493 12.6419 18.5 11.9996 18.5ZM5.95346 8.09227C5.36756 8.54484 4.84095 9.0567 4.37364 9.62787C3.90632 10.199 3.51497 10.8231 3.19959 11.5C4.03292 13.1833 5.23709 14.5208 6.81209 15.5125C8.38709 16.5042 10.1163 17 11.9996 17C12.4291 17 12.8519 16.9711 13.2679 16.9134C13.6839 16.8558 14.0971 16.7667 14.5073 16.6461L13.2419 15.35C13.0393 15.4384 12.8371 15.4984 12.6352 15.5298C12.4332 15.5612 12.2214 15.5769 11.9996 15.5769C10.865 15.5769 9.90185 15.1811 9.11019 14.3894C8.31852 13.5977 7.92269 12.6346 7.92269 11.5C7.92269 11.2782 7.93999 11.0663 7.97461 10.8644C8.00923 10.6625 8.06756 10.4602 8.14961 10.2577L5.95346 8.09227Z" fill="#4B5563"/>
</g>
<defs>
<clipPath id="clip0_0_3113">
<rect width="24" height="24" fill="white"/>
</clipPath>
</defs>
</svg>
