<svg width="579" height="444" viewBox="0 0 579 444" fill="none" xmlns="http://www.w3.org/2000/svg">
<g clip-path="url(#clip0_38271_1393)">
<rect width="579" height="444" fill="#F3F4F6"/>
<rect x="52" y="161" width="133" height="133" rx="22" fill="#F9FAFB"/>
<rect x="-105" y="161" width="133" height="133" rx="22" fill="#F9FAFB"/>
<rect x="403" y="161" width="133" height="133" rx="22" fill="#F9FAFB"/>
<rect x="560" y="161" width="133" height="133" rx="22" fill="#F9FAFB"/>
</g>
<rect x="205.801" y="143.323" width="167.398" height="170.384" rx="22" fill="#E5E7EB"/>
<rect x="205.801" y="143.323" width="167.398" height="170.384" rx="22" fill="url(#paint0_linear_38271_1393)"/>
<path d="M278.996 245.168C278.996 232.786 281.883 229.008 287.45 225.336C292.089 222.293 295.595 219.669 295.595 215.367C295.595 211.484 292.502 208.861 288.687 208.861C284.666 208.861 281.161 211.904 281.058 216.416H262.913C263.119 200.256 274.769 193.436 288.79 193.436C304.255 193.436 315.595 200.466 315.595 214.318C315.595 223.237 310.853 228.589 303.739 232.786C298.378 236.039 295.698 239.082 295.698 245.168V246.847H278.996V245.168ZM287.553 271.612C281.986 271.612 277.45 267.1 277.553 261.433C277.45 255.872 281.986 251.359 287.553 251.359C292.811 251.359 297.553 255.872 297.553 261.433C297.553 267.1 292.811 271.612 287.553 271.612Z" fill="#D1D5DB"/>
<path d="M427.283 350.43C430.11 353.307 434.733 353.348 437.61 350.521C440.486 347.695 440.527 343.072 437.701 340.195L427.283 350.43ZM384.73 307.118L427.283 350.43L437.701 340.195L395.148 296.883L384.73 307.118Z" fill="#3692FF"/>
<path d="M404.584 263.738C404.584 293.119 381.217 316.716 352.662 316.716C324.108 316.716 300.741 293.119 300.741 263.738C300.741 234.357 324.108 210.76 352.662 210.76C381.217 210.76 404.584 234.357 404.584 263.738Z" stroke="black" stroke-width="14.6041"/>
<defs>
<linearGradient id="paint0_linear_38271_1393" x1="232.388" y1="150.84" x2="354.398" y2="323.713" gradientUnits="userSpaceOnUse">
<stop stop-color="#BFD5FF"/>
<stop offset="1" stop-color="#E5E7EB" stop-opacity="0"/>
</linearGradient>
<clipPath id="clip0_38271_1393">
<rect width="579" height="444" fill="white"/>
</clipPath>
</defs>
</svg>
