<svg width="572" height="444" viewBox="0 0 572 444" fill="none" xmlns="http://www.w3.org/2000/svg">
<g clip-path="url(#clip0_38271_1624)">
<rect x="-7" width="588" height="444" fill="#F3F4F6"/>
<g opacity="0.5" clip-path="url(#clip1_38271_1624)">
<path d="M-50.6321 328.56C-50.6321 323.79 -46.7652 319.923 -41.9951 319.923H75.4849C80.255 319.923 84.1219 323.79 84.1219 328.56V398.571C84.1219 401.751 81.544 404.329 78.3639 404.329H-44.8741C-48.0541 404.329 -50.6321 401.751 -50.6321 398.571V328.56Z" fill="#0C7AFF"/>
<path fill-rule="evenodd" clip-rule="evenodd" d="M-129.363 305C-134.133 305 -138 308.867 -138 313.637V392.242C-138 392.253 -138 392.264 -138 392.275V487.42C-138 490.6 -135.422 493.178 -132.242 493.178H88.7297C91.9098 493.178 94.4877 490.6 94.4877 487.42V341.97C94.4877 338.79 91.9098 336.212 88.7297 336.212H-44V313.637C-44 308.867 -47.8669 305 -52.6369 305H-129.363Z" fill="#3692FF"/>
</g>
<g opacity="0.5" clip-path="url(#clip2_38271_1624)">
<path d="M566.368 328.56C566.368 323.79 570.235 319.923 575.005 319.923H692.485C697.255 319.923 701.122 323.79 701.122 328.56V398.571C701.122 401.751 698.544 404.329 695.364 404.329H572.126C568.946 404.329 566.368 401.751 566.368 398.571V328.56Z" fill="#0C7AFF"/>
<path fill-rule="evenodd" clip-rule="evenodd" d="M487.637 305C482.867 305 479 308.867 479 313.637V392.242C479 392.253 479 392.264 479 392.275V487.42C479 490.6 481.578 493.178 484.758 493.178H705.73C708.91 493.178 711.488 490.6 711.488 487.42V341.97C711.488 338.79 708.91 336.212 705.73 336.212H573V313.637C573 308.867 569.133 305 564.363 305H487.637Z" fill="#3692FF"/>
</g>
</g>
<g clip-path="url(#clip3_38271_1624)">
<path d="M251.087 328.194C251.087 323.424 254.954 319.557 259.724 319.557H377.204C381.974 319.557 385.841 323.424 385.841 328.194V398.206C385.841 401.386 383.263 403.964 380.083 403.964H256.845C253.665 403.964 251.087 401.386 251.087 398.206V328.194Z" fill="#0C7AFF"/>
<path fill-rule="evenodd" clip-rule="evenodd" d="M172.356 304.634C167.586 304.634 163.719 308.501 163.719 313.271V391.876C163.719 391.887 163.719 391.898 163.719 391.909V487.055C163.719 490.235 166.297 492.812 169.477 492.812H390.449C393.629 492.812 396.207 490.235 396.207 487.055V341.604C396.207 338.424 393.629 335.846 390.449 335.846H257.719V313.271C257.719 308.501 253.853 304.634 249.082 304.634H172.356Z" fill="#3692FF"/>
</g>
<path d="M67.8367 123.251C67.8367 116.623 73.2093 111.251 79.8367 111.251H196.832V242.546H79.8367C73.2093 242.546 67.8367 237.174 67.8367 230.546V123.251Z" fill="#8698FF"/>
<path d="M115.496 144.408C115.426 143.797 115.464 143.177 115.607 142.578C116.755 137.762 123.277 136.979 125.476 141.393C125.75 141.942 125.926 142.536 125.995 143.147L132.159 197.314C132.489 200.215 130.407 202.85 127.507 203.198C124.608 203.546 121.99 201.476 121.66 198.575L115.496 144.408Z" fill="#E02D2C"/>
<path fill-rule="evenodd" clip-rule="evenodd" d="M121.699 133.836C123.676 137.78 121.117 142.53 116.724 143.069C116.032 143.154 115.546 142.49 115.712 141.81L118.445 130.578C118.626 129.835 119.631 129.713 119.972 130.393L121.699 133.836Z" fill="white"/>
<path fill-rule="evenodd" clip-rule="evenodd" d="M120.614 131.686C121.035 132.525 120.491 133.535 119.556 133.65C118.621 133.765 117.866 132.911 118.091 131.993L118.437 130.578C118.619 129.836 119.623 129.713 119.963 130.392L120.614 131.686Z" fill="#E02D2C"/>
<path d="M139.878 143.146C139.948 142.535 140.123 141.941 140.397 141.392C142.598 136.979 149.119 137.764 150.266 142.58C150.409 143.18 150.446 143.799 150.377 144.411L144.194 198.575C143.863 201.476 141.244 203.545 138.345 203.196C135.446 202.847 133.364 200.212 133.695 197.311L139.878 143.146Z" fill="#292424"/>
<path fill-rule="evenodd" clip-rule="evenodd" d="M148.241 134.495C149.271 138.731 145.787 142.661 141.474 142.13C140.696 142.034 140.341 141.173 140.691 140.475L145.758 130.376C146.1 129.696 147.105 129.819 147.286 130.562L148.241 134.495Z" fill="white"/>
<path fill-rule="evenodd" clip-rule="evenodd" d="M147.685 131.674C147.91 132.593 147.155 133.446 146.219 133.331C145.285 133.216 144.741 132.205 145.163 131.366L145.813 130.073C146.154 129.395 147.158 129.518 147.339 130.26L147.685 131.674Z" fill="#292424"/>
<path d="M109.709 173.831C109.709 167.203 115.082 161.831 121.709 161.831H156.104V220.55H121.709C115.082 220.55 109.709 215.177 109.709 208.55V173.831Z" fill="#5F76FF"/>
<path d="M109.709 188.726C109.709 182.943 114.397 178.255 120.18 178.255H156.104V199.197H120.18C114.397 199.197 109.709 194.509 109.709 188.726Z" fill="#FFD875"/>
<path d="M226.372 123.251C226.372 116.623 231.745 111.251 238.372 111.251H355.367V242.546H238.372C231.745 242.546 226.372 237.174 226.372 230.546V123.251Z" fill="#B9D9FF"/>
<path d="M260.816 149.783C260.816 143.461 265.72 138.224 272.028 137.809L307.614 135.465C314.536 135.009 320.402 140.501 320.402 147.439V203.963C320.402 210.591 315.03 215.963 308.402 215.963H272.816C266.189 215.963 260.816 210.591 260.816 203.963V149.783Z" fill="#F3F4F6"/>
<path d="M260.816 151.054C260.816 144.232 266.496 138.782 273.313 139.065L309.6 140.568C316.029 140.834 321.103 146.123 321.103 152.557V206.518C321.103 213.396 315.334 218.867 308.465 218.501L272.178 216.569C265.808 216.229 260.816 210.965 260.816 204.586V151.054Z" fill="#4E93EF"/>
<path d="M296.918 146.906C296.918 143.124 300.065 140.1 303.845 140.252C307.416 140.396 310.237 143.332 310.237 146.906V154.497C310.237 157.043 307.45 158.607 305.277 157.28C304.234 156.643 302.922 156.643 301.878 157.28C299.706 158.607 296.918 157.043 296.918 154.497V146.906Z" fill="white"/>
<path d="M379.985 123.251C379.985 116.623 385.357 111.251 391.985 111.251H508.98V242.546H391.985C385.357 242.546 379.985 237.174 379.985 230.546V123.251Z" fill="#FFB9E3"/>
<path d="M437.879 179.78C438.079 179.111 439.561 177.775 443.886 177.775C448.21 177.775 449.892 179.111 450.193 179.78" stroke="#FF46C0" stroke-width="3.84902"/>
<path d="M434.313 186.653C434.298 186.663 434.284 186.674 434.269 186.685C434.269 186.685 434.269 186.685 434.269 186.685C433.962 186.917 433.616 187.278 433.384 187.803C433.164 188.302 433.145 188.735 433.145 188.919C433.146 188.597 433.197 188.31 433.25 188.1C433.281 187.978 433.336 187.79 433.43 187.577C433.465 187.498 433.542 187.329 433.677 187.125M434.313 186.653L434.264 186.677C434.138 186.767 433.938 186.919 433.677 187.125M434.313 186.653L436.098 188.703M434.313 186.653L420.227 201.894C422.284 200.231 425.323 197.72 428.189 195.353C431.881 192.304 435.287 189.491 435.935 189.03C435.953 189.018 435.969 189.01 435.982 189.003C436.014 188.988 436.032 188.979 436.032 188.928C436.032 188.872 436.056 188.739 436.098 188.703M433.677 187.125C432.512 188.042 430.123 190.013 427.576 192.116C427.173 192.448 426.763 192.787 426.35 193.128C423.494 195.487 420.483 197.974 418.439 199.628C418.149 199.843 417.631 199.843 417.34 199.628C414.909 197.661 411.045 194.456 407.746 191.703C406.093 190.324 404.586 189.062 403.479 188.132C402.758 187.527 402.252 187.1 401.973 186.865C401.8 186.719 401.715 186.647 401.721 186.653C399.576 184.644 398.405 182.05 398.405 179.378V179.011C398.597 173.882 403.366 169.339 409.319 169.339C410.837 169.339 413.146 170.277 414.541 171.762C414.545 171.767 414.576 171.807 414.657 171.92C414.665 171.931 414.674 171.944 414.684 171.959C414.776 172.087 414.954 172.339 415.151 172.569C415.539 173.023 416.839 174.374 418.87 173.872L418.178 171.069L418.87 173.872C420.183 173.547 420.852 172.603 421.095 172.229C421.207 172.058 421.31 171.873 421.355 171.793C421.361 171.783 421.365 171.774 421.369 171.768C421.383 171.743 421.393 171.726 421.399 171.715C421.915 171.023 422.769 170.356 423.804 169.856C424.866 169.342 425.858 169.13 426.46 169.13C432.576 169.13 437.182 173.618 437.374 179.009V179.378C437.374 182.28 436.192 184.793 434.202 186.526C433.97 186.727 433.8 186.94 433.677 187.125ZM436.098 188.703C438.729 186.411 440.261 183.1 440.261 179.378V178.961L434.313 186.653L436.098 188.703Z" stroke="#FF68CC" stroke-width="5.77353"/>
<path d="M485.539 186.653C485.525 186.663 485.51 186.674 485.496 186.685C485.496 186.685 485.496 186.685 485.496 186.685C485.189 186.917 484.842 187.278 484.611 187.803C484.39 188.302 484.372 188.735 484.371 188.919C484.372 188.597 484.424 188.31 484.477 188.1C484.508 187.978 484.562 187.79 484.657 187.577C484.692 187.498 484.768 187.329 484.904 187.125M485.539 186.653L485.49 186.677C485.364 186.767 485.165 186.919 484.904 187.125M485.539 186.653L487.324 188.703M485.539 186.653L471.453 201.894C473.511 200.231 476.55 197.72 479.416 195.353C483.108 192.304 486.513 189.491 487.162 189.03C487.18 189.018 487.196 189.01 487.209 189.003C487.24 188.988 487.258 188.979 487.258 188.928C487.258 188.872 487.283 188.739 487.324 188.703M484.904 187.125C483.739 188.042 481.349 190.013 478.803 192.116C478.4 192.448 477.99 192.787 477.577 193.128C474.721 195.487 471.71 197.974 469.665 199.628C469.375 199.843 468.857 199.843 468.567 199.628C466.136 197.661 462.272 194.456 458.973 191.703C457.319 190.324 455.812 189.062 454.705 188.132C453.985 187.527 453.479 187.1 453.2 186.865C453.027 186.719 452.941 186.647 452.947 186.653C450.803 184.644 449.631 182.05 449.631 179.378V179.011C449.823 173.882 454.593 169.339 460.546 169.339C462.063 169.339 464.373 170.277 465.768 171.762C465.772 171.767 465.803 171.807 465.883 171.92C465.891 171.931 465.901 171.944 465.911 171.959C466.002 172.087 466.181 172.339 466.377 172.569C466.766 173.023 468.066 174.374 470.097 173.872L469.404 171.069L470.097 173.872C471.41 173.547 472.079 172.603 472.322 172.229C472.433 172.058 472.537 171.873 472.581 171.793C472.587 171.783 472.592 171.774 472.596 171.768C472.61 171.743 472.62 171.726 472.626 171.715C473.142 171.023 473.995 170.356 475.03 169.856C476.093 169.342 477.085 169.13 477.686 169.13C483.803 169.13 488.408 173.618 488.601 179.009V179.378C488.601 182.28 487.418 184.793 485.428 186.526C485.197 186.727 485.027 186.94 484.904 187.125ZM487.324 188.703C489.955 186.411 491.488 183.1 491.488 179.378V178.961L485.539 186.653L487.324 188.703Z" stroke="#FF68CC" stroke-width="5.77353"/>
<path d="M399.906 148.111C400.227 146.204 402.966 146.204 403.287 148.111C403.377 148.647 403.716 149.108 404.2 149.355L404.71 149.613C406.785 150.669 406.785 153.634 404.71 154.69L404.2 154.949C403.716 155.195 403.377 155.656 403.287 156.192C402.966 158.099 400.227 158.099 399.906 156.192C399.816 155.656 399.477 155.195 398.992 154.949L398.483 154.69C396.408 153.634 396.408 150.669 398.483 149.613L398.992 149.355C399.477 149.108 399.816 148.647 399.906 148.111Z" fill="white"/>
<path d="M416.409 141.006C416.608 139.81 418.327 139.81 418.526 141.006C418.581 141.34 418.791 141.628 419.092 141.784L419.42 141.953C420.725 142.626 420.725 144.492 419.42 145.165L419.092 145.334C418.791 145.49 418.581 145.778 418.526 146.112C418.327 147.308 416.608 147.308 416.409 146.112C416.354 145.778 416.144 145.49 415.843 145.334L415.515 145.165C414.21 144.492 414.21 142.626 415.515 141.953L415.843 141.784C416.144 141.628 416.354 141.34 416.409 141.006Z" fill="white"/>
<path d="M403.39 271.173C399.817 265.619 401.374 258.145 406.868 254.48L494.759 391.089C489.265 394.754 481.914 393.223 478.34 387.668L403.39 271.173Z" fill="#374151"/>
<path fill-rule="evenodd" clip-rule="evenodd" d="M411.159 261.144C413.53 264.828 412.497 269.79 408.854 272.223L405.577 274.411C405.536 274.439 405.481 274.427 405.455 274.385L403.393 271.18C401.319 267.957 400.972 264.088 402.12 260.691C403.532 256.509 408.791 257.462 411.159 261.144Z" fill="#3692FF"/>
<path d="M406.358 275.749C405.913 275.058 406.107 274.128 406.79 273.672L415.448 267.894L417.056 270.396L408.399 276.174C407.716 276.63 406.802 276.44 406.358 275.749Z" fill="#111827"/>
<defs>
<clipPath id="clip0_38271_1624">
<path d="M-7 12C-7 5.37258 -1.62742 0 5 0H572V444H4.99999C-1.62743 444 -7 438.627 -7 432V12Z" fill="white"/>
</clipPath>
<clipPath id="clip1_38271_1624">
<rect width="293" height="162" fill="white" transform="translate(-166 282)"/>
</clipPath>
<clipPath id="clip2_38271_1624">
<rect width="293" height="162" fill="white" transform="translate(451 282)"/>
</clipPath>
<clipPath id="clip3_38271_1624">
<path d="M139.719 293.634C139.719 287.007 145.092 281.634 151.719 281.634H428.235V444H151.719C145.092 444 139.719 438.627 139.719 432V293.634Z" fill="white"/>
</clipPath>
</defs>
</svg>
