<svg width="153" height="52" viewBox="0 0 153 52" fill="none" xmlns="http://www.w3.org/2000/svg">
<rect y="5.51685" width="40" height="40.1354" rx="11.1782" fill="#3692FF"/>
<path d="M19.3141 16.6915C19.8134 18.4169 18.4932 20.3183 16.9799 20.7591C15.4666 21.2 13.3991 20.2856 12.8998 18.5601C12.4005 16.8346 13.4487 14.4439 14.962 14.003C16.9799 13.4151 18.8148 14.966 19.3141 16.6915Z" fill="#222327"/>
<path d="M20.1463 16.6915C19.647 18.4169 20.9673 20.3183 22.4806 20.7591C23.9939 21.2 26.0613 20.2856 26.5606 18.5601C27.0599 16.8346 26.0117 14.4439 24.4984 14.003C22.4806 13.4151 20.6456 14.966 20.1463 16.6915Z" fill="#222327"/>
<path d="M29.5167 29.2966C29.5167 33.6854 25.2133 35.3168 19.3432 35.3168C13.4731 35.3168 9.26709 33.6854 9.26709 29.2966C9.26709 24.1915 13.4731 19.6643 19.3432 19.6643C25.2133 19.6643 29.5167 23.8062 29.5167 29.2966Z" fill="#F3D6DD"/>
<path d="M17.4003 28.4301C17.4003 29.8675 16.4777 31.4444 15.1884 31.4444C13.8991 31.4444 11.8164 30.2732 11.8164 28.126C11.8164 26.109 14.0664 25.3916 16.3913 25.7599C17.8163 25.9857 17.4003 26.9927 17.4003 28.4301Z" fill="#222327"/>
<path d="M16.3219 28.285C16.3219 28.5007 16.2571 28.6754 15.9328 28.6754C15.6086 28.6754 15.5438 28.5007 15.5438 28.285C15.5438 28.0694 15.6735 27.8947 15.9328 27.8947C16.1922 27.8947 16.3219 28.0694 16.3219 28.285Z" fill="white"/>
<path d="M21.3222 28.4301C21.3222 29.8675 22.2448 31.4444 23.5341 31.4444C24.8233 31.4444 26.9061 30.2732 26.9061 28.126C26.9061 26.109 24.6561 25.3916 22.3312 25.7599C20.9062 25.9857 21.3222 26.9927 21.3222 28.4301Z" fill="#222327"/>
<path d="M22.4015 28.2852C22.4015 28.5008 22.4664 28.6756 22.7906 28.6756C23.1148 28.6756 23.1797 28.5008 23.1797 28.2852C23.1797 28.0696 23.05 27.8948 22.7906 27.8948C22.5312 27.8948 22.4015 28.0696 22.4015 28.2852Z" fill="white"/>
<path d="M17.875 30.5098C17.7964 30.3952 17.6399 30.366 17.5253 30.4445C17.4107 30.523 17.3815 30.6795 17.46 30.7941L17.875 30.5098ZM19.3174 30.2004L19.5554 30.1189C19.5205 30.0172 19.4249 29.9489 19.3174 29.9489C19.21 29.9489 19.1144 30.0172 19.0795 30.1189L19.3174 30.2004ZM21.1749 30.7941C21.2534 30.6795 21.2242 30.523 21.1096 30.4445C20.995 30.366 20.8385 30.3952 20.7599 30.5098L21.1749 30.7941ZM17.46 30.7941C17.5295 30.8955 17.6557 31.0315 17.8249 31.1437C17.9957 31.257 18.2239 31.355 18.4925 31.355V30.852C18.3485 30.852 18.2158 30.7994 18.103 30.7246C17.9886 30.6487 17.9086 30.5589 17.875 30.5098L17.46 30.7941ZM18.4925 31.355C18.823 31.355 19.0688 31.1192 19.2218 30.9162C19.3834 30.7019 19.4975 30.4508 19.5554 30.282L19.0795 30.1189C19.0342 30.2511 18.9422 30.4515 18.8201 30.6135C18.6895 30.7867 18.5744 30.852 18.4925 30.852V31.355ZM19.0795 30.282C19.1374 30.4508 19.2515 30.7019 19.4131 30.9162C19.5661 31.1192 19.8119 31.355 20.1424 31.355V30.852C20.0605 30.852 19.9454 30.7867 19.8148 30.6135C19.6927 30.4515 19.6006 30.2511 19.5554 30.1189L19.0795 30.282ZM20.1424 31.355C20.411 31.355 20.6392 31.257 20.81 31.1437C20.9792 31.0315 21.1054 30.8955 21.1749 30.7941L20.7599 30.5098C20.7263 30.5589 20.6463 30.6487 20.5319 30.7246C20.4191 30.7994 20.2863 30.852 20.1424 30.852V31.355Z" fill="#222327"/>
<path d="M20.6906 29.968C20.6906 30.1773 19.7486 30.4435 19.4315 30.5272C19.3638 30.5451 19.2939 30.5451 19.2261 30.5272C18.9091 30.4435 17.967 30.1773 17.967 29.968C17.967 29.7165 18.72 29.4475 19.3288 29.4475C19.9376 29.4475 20.6906 29.7165 20.6906 29.968Z" fill="#222327"/>
<path d="M19.166 23.2763C15.3818 23.2763 13.9911 21.9468 13.7661 21.1692L15.5661 19.2127L19.466 18.5354L24.8659 21.1692C24.5409 21.7963 22.9544 23.2763 19.166 23.2763Z" fill="#222327"/>
<path fill-rule="evenodd" clip-rule="evenodd" d="M19.6898 37.4992C27.5098 37.4992 33.2427 35.2952 33.2427 29.3659C33.2427 21.9484 27.5098 16.3528 19.6898 16.3528C11.8698 16.3528 6.2666 22.469 6.2666 29.3659C6.2666 35.2952 11.8698 37.4992 19.6898 37.4992ZM19.3823 35.2221C25.1345 35.2221 29.3515 33.6081 29.3515 29.2661C29.3515 23.8342 25.1345 19.7364 19.3823 19.7364C13.6301 19.7364 9.50854 24.2154 9.50854 29.2661C9.50854 33.6081 13.6301 35.2221 19.3823 35.2221Z" fill="white"/>
<path d="M70.8926 22.6522H73.9685V26.2408H70.8926V33.5206H66.2786V29.0092C62.9976 29.6757 59.7422 30.0345 55.0001 30.0345H49.6171V26.5228H51.6678V19.243H50.1298V15.7825H64.2792V19.243H62.7413V26.1383C63.9973 25.9845 65.1764 25.8051 66.2786 25.6V15.5262H70.8926V22.6522ZM52.1548 39.6213V32.0083H56.8713V36.0583H71.4052V39.6213H52.1548ZM56.2817 26.5228C56.9225 26.4972 57.5377 26.4972 58.1273 26.4715V19.243H56.2817V26.5228ZM99.6016 24.4465V28.0351H96.5256V39.6213H91.9117V35.5969C88.6306 36.5453 85.3752 37.0836 80.6331 37.0836H76.0192V16.2952H89.1433V19.7557H80.6331V33.5719C85.324 33.5719 88.6563 33.1105 91.9117 32.1877V15.5262H96.5256V24.4465H99.6016ZM125.235 24.4465V28.0351H122.159V39.6213H117.545V15.5262H122.159V24.4465H125.235ZM101.652 37.0836V16.2952H115.058V37.0836H101.652ZM106.266 33.5719H110.496V19.8069H106.266V33.5719ZM144.844 15.5262H149.33V29.4193H144.844V15.5262ZM125.747 26.6766C128.746 26.0614 131.002 25.113 132.258 23.9082L127.285 24.2158V20.8835H133.335V19.243H127.798V15.7825H137.821V20.3965H139.282V15.6544H143.639V29.4193H139.282V23.9851H137.154C135.795 26.6253 132.386 28.8041 127.208 30.1114L125.747 26.6766ZM128.541 35.9558C134.873 35.7251 136.718 34.4178 136.718 32.1877V30.2396H141.332V32.5978C141.332 33.213 141.255 33.8026 141.102 34.3409C144.075 34.5459 147.023 34.9561 149.33 35.4944L148.099 39.6213C145.459 38.6985 141.768 37.8013 138.795 37.3143C136.667 38.7498 133.258 39.4419 129.028 39.6213L128.541 35.9558Z" fill="#3692FF"/>
</svg>
