<svg width="16" height="16" viewBox="0 0 16 16" fill="none" xmlns="http://www.w3.org/2000/svg">
<path d="M3.55718 9.31157C3.40747 9.18016 3.2877 9.07475 3.19992 8.99739V8.95147L3.02418 8.77574C2.33037 8.08193 1.93325 7.16547 1.93325 6.2V6.07612C1.99472 4.2062 3.59178 2.66667 5.46659 2.66667C5.74487 2.66667 6.11408 2.76344 6.48213 2.96162C6.82945 3.14864 7.13432 3.40383 7.33677 3.68842C7.63125 4.31494 8.53905 4.30366 8.81145 3.65457C8.97919 3.36092 9.27318 3.0955 9.62549 2.89902C9.99312 2.694 10.3596 2.6 10.5999 2.6C12.5292 2.6 14.0716 4.12742 14.1333 6.07581V6.2C14.1333 7.24201 13.7299 8.14473 13.0612 8.75771L12.8666 8.93606V8.97957C12.7655 9.06525 12.6352 9.17766 12.4833 9.30974C12.1462 9.6029 11.6947 9.99999 11.2032 10.4332C11.0455 10.5722 10.8837 10.7149 10.7201 10.8592C9.86382 11.6143 8.95928 12.4119 8.34591 12.9417C8.16938 13.0861 7.89711 13.0861 7.72059 12.9417C6.98838 12.3093 5.82577 11.2962 4.83642 10.4316C4.34079 9.9984 3.88905 9.60286 3.55718 9.31157Z" stroke="#6B7280" stroke-width="1.2"/>
</svg>
