<svg width="282" height="282" viewBox="0 0 282 282" fill="none" xmlns="http://www.w3.org/2000/svg">
<rect width="282" height="282" rx="12" fill="#F3F4F6"/>
<path d="M127 122H155" stroke="#9CA3AF" stroke-width="4" stroke-linecap="round"/>
<path d="M141 136V108" stroke="#9CA3AF" stroke-width="4" stroke-linecap="round"/>
<path d="M116.016 164.375V178.297H114.781V164.375H116.016ZM105.078 170.297C105.086 167.344 106.555 165.461 108.625 165.453C110.688 165.461 112.18 167.344 112.172 170.297C112.18 173.258 110.688 175.133 108.625 175.125C106.555 175.133 105.086 173.258 105.078 170.297ZM106.266 170.297C106.266 172.555 107.234 174.039 108.625 174.031C110.023 174.039 110.984 172.555 110.984 170.297C110.984 168.039 110.023 166.555 108.625 166.547C107.234 166.555 106.266 168.039 106.266 170.297ZM125.625 165.75V174.781H119.203V165.75H125.625ZM120.406 173.781H124.422V166.734H120.406V173.781ZM128.609 178.297V164.375H129.844V178.297H128.609ZM137.188 168.641C137.195 171 138.906 173.398 140.953 174.281L140.266 175.25C138.641 174.516 137.242 172.914 136.594 170.992C135.945 173.031 134.539 174.797 132.953 175.594L132.219 174.625C134.211 173.672 135.945 171.047 135.953 168.641V166.828H132.672V165.812H140.5V166.828H137.188V168.641ZM142.438 178.266V164.375H143.672V178.266H142.438ZM162.734 170.984V172.016H150.062V170.984H162.734ZM151.594 175.734C151.586 174.141 153.391 173.234 156.391 173.234C159.367 173.234 161.156 174.141 161.172 175.734C161.156 177.344 159.367 178.234 156.391 178.234C153.391 178.234 151.586 177.344 151.594 175.734ZM151.672 169.656V164.938H161.156V165.969H152.875V168.656H161.25V169.656H151.672ZM152.844 175.734C152.828 176.711 154.164 177.266 156.391 177.266C158.594 177.266 159.93 176.711 159.938 175.734C159.93 174.766 158.594 174.203 156.391 174.188C154.164 174.203 152.828 174.766 152.844 175.734ZM176.594 172.031V173.047H163.875V172.031H169.625V170.562H165.531V167.172H173.719V165.734H165.484V164.734H174.953V168.094H166.75V169.578H175.25V170.562H170.828V172.031H176.594ZM165.297 175.109V174.109H175.031V178.141H173.797V175.109H165.297Z" fill="#9CA3AF"/>
</svg>
