<svg width="282" height="282" viewBox="0 0 282 282" fill="none" xmlns="http://www.w3.org/2000/svg">
<rect width="282" height="282" fill="#F9FAFB"/>
<path d="M160.703 72.9615L176.646 72.9746L173.443 91.041C178.958 95.1036 181.645 101.976 180.348 108.703L176.067 130.901L161.187 130.889L157.596 108.326C156.549 101.751 159.159 95.1278 164.408 91.0336L160.703 72.9615Z" fill="#E5E7EB"/>
<rect x="83.0645" y="130.825" width="115.855" height="78.1222" rx="6.37732" transform="rotate(0.0471621 83.0645 130.825)" fill="#E5E7EB"/>
<path fill-rule="evenodd" clip-rule="evenodd" d="M142.31 130.874L168.906 153.335L165.081 153.799L165.455 157.421L161.726 157.772L162.004 161.507L158.275 161.858L158.553 165.594L154.824 165.944L155.102 169.68L109.121 130.846L142.31 130.874Z" fill="#F3F4F6"/>
<path d="M137.811 163.902C138.176 165.465 136.903 167.098 135.528 167.42C134.152 167.741 132.344 166.826 131.979 165.262C131.615 163.699 132.667 161.616 134.043 161.295C135.878 160.867 137.446 162.338 137.811 163.902Z" fill="#F3F4F6"/>
<path d="M144.832 163.961C144.302 165.477 145.394 167.237 146.728 167.702C148.061 168.168 149.956 167.451 150.485 165.935C151.015 164.419 150.19 162.236 148.856 161.77C147.078 161.149 145.361 162.445 144.832 163.961Z" fill="#F3F4F6"/>
<path d="M151.422 172.864C151.177 177.445 146.613 178.909 140.51 178.583C134.408 178.257 130.126 176.321 130.371 171.74C130.656 166.411 134.238 162.336 141.358 162.716C148.478 163.097 151.728 167.133 151.422 172.864Z" fill="#F3F4F6"/>
<path d="M139.505 170.851C139.434 172.18 138.534 173.594 137.385 173.532C136.236 173.471 134.438 172.289 134.544 170.304C134.643 168.439 136.684 167.883 138.738 168.334C139.997 168.611 139.576 169.522 139.505 170.851Z" fill="#E5E7EB"/>
<path d="M137.367 170.538C137.353 170.798 137.421 171.013 137.813 171.034C138.206 171.055 138.296 170.849 138.31 170.588C138.324 170.328 138.178 170.109 137.864 170.092C137.549 170.075 137.381 170.278 137.367 170.538Z" fill="white"/>
<path d="M142.434 171.007C142.363 172.336 143.107 173.838 144.256 173.899C145.405 173.961 147.319 172.977 147.425 170.992C147.525 169.127 145.555 168.357 143.465 168.586C142.184 168.727 142.505 169.678 142.434 171.007Z" fill="#E5E7EB"/>
<path d="M144.593 170.924C144.579 171.184 144.489 171.391 144.097 171.37C143.704 171.349 143.637 171.134 143.651 170.874C143.665 170.613 143.833 170.411 144.147 170.428C144.461 170.444 144.607 170.664 144.593 170.924Z" fill="white"/>
<rect x="89.9834" y="119.139" width="57.9273" height="11.6918" rx="1.06289" transform="rotate(0.0471621 89.9834 119.139)" fill="#E5E7EB"/>
<rect x="86.252" y="110.64" width="52.0815" height="8.5031" rx="1.06289" transform="rotate(0.0471621 86.252 110.64)" fill="#E5E7EB"/>
<rect x="93.1602" y="102.175" width="52.0815" height="8.5031" rx="1.06289" transform="rotate(0.0471621 93.1602 102.175)" fill="#E5E7EB"/>
</svg>
