<svg width="25" height="24" viewBox="0 0 25 24" fill="none" xmlns="http://www.w3.org/2000/svg">
<path d="M11.3966 16.2605C12.878 16.2605 14.1424 15.7401 15.1897 14.6992C16.2369 13.6584 16.7605 12.3908 16.7605 10.8966C16.7605 9.41507 16.2369 8.1507 15.1897 7.10345C14.1424 6.05619 12.878 5.53257 11.3966 5.53257C9.9023 5.53257 8.63474 6.05619 7.59387 7.10345C6.553 8.1507 6.03257 9.41507 6.03257 10.8966C6.03257 12.3908 6.553 13.6584 7.59387 14.6992C8.63474 15.7401 9.9023 16.2605 11.3966 16.2605ZM11.3966 17.7931C10.4387 17.7931 9.54151 17.6111 8.70498 17.2471C7.86845 16.8831 7.14049 16.3914 6.52107 15.772C5.90166 15.1526 5.40996 14.4246 5.04598 13.5881C4.68199 12.7516 4.5 11.8544 4.5 10.8966C4.5 9.95147 4.68199 9.06066 5.04598 8.22414C5.40996 7.38761 5.90166 6.65645 6.52107 6.03065C7.14049 5.40485 7.86845 4.90996 8.70498 4.54598C9.54151 4.18199 10.4387 4 11.3966 4C12.3416 4 13.2324 4.18199 14.069 4.54598C14.9055 4.90996 15.6367 5.40485 16.2625 6.03065C16.8883 6.65645 17.3831 7.38761 17.7471 8.22414C18.1111 9.06066 18.2931 9.95147 18.2931 10.8966C18.2931 11.7139 18.159 12.4866 17.8908 13.2146C17.6226 13.9425 17.2522 14.6066 16.7797 15.2069L19.2893 17.7165C19.4425 17.8697 19.516 18.0485 19.5096 18.2529C19.5032 18.4572 19.4234 18.636 19.2701 18.7893C19.1169 18.9298 18.9381 19 18.7337 19C18.5294 19 18.3506 18.9298 18.1973 18.7893L15.6877 16.2989C15.0875 16.7714 14.4234 17.1386 13.6954 17.4004C12.9674 17.6622 12.2011 17.7931 11.3966 17.7931Z" fill="#9CA3AF"/>
</svg>
