<svg width="343" height="343" viewBox="0 0 343 343" fill="none" xmlns="http://www.w3.org/2000/svg">
<rect width="343" height="343" fill="#F9FAFB"/>
<path d="M191.243 103.461L207.187 103.475L203.983 121.541C209.499 125.604 212.186 132.476 210.889 139.203L206.608 161.401L191.727 161.389L188.136 138.826C187.09 132.251 189.699 125.628 194.949 121.534L191.243 103.461Z" fill="#E5E7EB"/>
<rect x="113.605" y="161.325" width="115.855" height="78.1222" rx="6.37732" transform="rotate(0.0471621 113.605 161.325)" fill="#E5E7EB"/>
<path fill-rule="evenodd" clip-rule="evenodd" d="M172.85 161.374L199.446 183.835L195.621 184.299L195.995 187.921L192.266 188.272L192.544 192.007L188.815 192.358L189.093 196.094L185.364 196.444L185.642 200.18L139.661 161.346L172.85 161.374Z" fill="#F3F4F6"/>
<path d="M168.352 194.401C168.717 195.965 167.445 197.598 166.069 197.919C164.693 198.24 162.885 197.326 162.52 195.762C162.156 194.199 163.208 192.116 164.584 191.794C166.419 191.366 167.987 192.838 168.352 194.401Z" fill="#F3F4F6"/>
<path d="M175.373 194.461C174.843 195.977 175.935 197.737 177.269 198.202C178.602 198.668 180.497 197.951 181.026 196.435C181.556 194.919 180.731 192.736 179.397 192.27C177.619 191.649 175.902 192.945 175.373 194.461Z" fill="#F3F4F6"/>
<path d="M181.963 203.364C181.718 207.945 177.153 209.409 171.051 209.083C164.948 208.757 160.667 206.821 160.911 202.24C161.196 196.911 164.778 192.836 171.898 193.216C179.018 193.596 182.269 197.633 181.963 203.364Z" fill="#F3F4F6"/>
<path d="M170.046 201.351C169.975 202.68 169.075 204.094 167.926 204.032C166.777 203.971 164.978 202.789 165.084 200.804C165.184 198.939 167.225 198.383 169.279 198.834C170.537 199.111 170.117 200.022 170.046 201.351Z" fill="#E5E7EB"/>
<path d="M167.908 201.038C167.894 201.298 167.961 201.514 168.354 201.534C168.746 201.555 168.836 201.349 168.85 201.088C168.864 200.828 168.718 200.609 168.404 200.592C168.09 200.575 167.921 200.778 167.908 201.038Z" fill="white"/>
<path d="M172.975 201.507C172.904 202.836 173.648 204.338 174.797 204.399C175.946 204.461 177.86 203.477 177.966 201.492C178.066 199.627 176.096 198.857 174.006 199.086C172.725 199.227 173.046 200.178 172.975 201.507Z" fill="#E5E7EB"/>
<path d="M175.134 201.424C175.12 201.684 175.031 201.891 174.638 201.87C174.245 201.849 174.178 201.634 174.192 201.374C174.206 201.113 174.374 200.911 174.688 200.928C175.002 200.944 175.148 201.164 175.134 201.424Z" fill="white"/>
<rect x="120.524" y="149.639" width="57.9273" height="11.6918" rx="1.06289" transform="rotate(0.0471621 120.524 149.639)" fill="#E5E7EB"/>
<rect x="116.792" y="141.14" width="52.0815" height="8.5031" rx="1.06289" transform="rotate(0.0471621 116.792 141.14)" fill="#E5E7EB"/>
<rect x="123.701" y="132.675" width="52.0815" height="8.5031" rx="1.06289" transform="rotate(0.0471621 123.701 132.675)" fill="#E5E7EB"/>
</svg>
