<svg width="140" height="140" viewBox="0 0 140 140" fill="none" xmlns="http://www.w3.org/2000/svg">
<path d="M61.4634 37.3832C63.7348 43.2511 59.6901 50.2863 54.5264 52.2851C49.3626 54.2839 41.8479 51.7232 39.5765 45.8553C37.3051 39.9874 40.2491 31.3274 45.4128 29.3286C52.2983 26.6634 59.1921 31.5154 61.4634 37.3832Z" fill="#D1D5DB"/>
<path d="M64.3745 37.1306C63.1501 43.3025 68.3485 49.5339 73.7798 50.6113C79.211 51.6888 86.1709 47.8693 87.3953 41.6974C88.6197 35.5256 84.2251 27.5037 78.7939 26.4263C71.5517 24.9896 65.5989 30.9587 64.3745 37.1306Z" fill="#D1D5DB"/>
<path d="M117.762 82.1276C117.762 102.892 97.6174 110.61 70.1393 110.61C42.6612 110.61 22.9727 102.892 22.9727 82.1276C22.9727 57.9746 42.6612 36.556 70.1393 36.556C97.6174 36.556 117.762 56.1518 117.762 82.1276Z" fill="#F3F4F6"/>
<path d="M104.832 81.8884C104.832 97.1101 90.7185 102.768 71.4672 102.768C52.2158 102.768 38.4219 97.1101 38.4219 81.8884C38.4219 64.1824 52.2158 48.4808 71.4672 48.4808C90.7185 48.4808 104.832 62.8461 104.832 81.8884Z" fill="#F9FAFB"/>
<path d="M69.6496 79.765C69.6496 84.7987 66.5801 90.3208 62.2907 90.3208C58.0013 90.3208 51.0723 86.2193 51.0723 78.7C51.0723 71.6364 58.5577 69.1242 66.2927 70.4141C71.0335 71.2047 69.6496 74.7313 69.6496 79.765Z" fill="#D1D5DB"/>
<path d="M66.0625 79.2564C66.0625 80.0115 65.8468 80.6236 64.7681 80.6236C63.6894 80.6236 63.4736 80.0115 63.4736 79.2564C63.4736 78.5014 63.9051 77.8893 64.7681 77.8893C65.631 77.8893 66.0625 78.5014 66.0625 79.2564Z" fill="#F3F4F6"/>
<path d="M82.3428 79.765C82.3428 84.7987 85.1878 90.3208 89.1635 90.3208C93.1392 90.3208 99.5615 86.2193 99.5615 78.7C99.5615 71.6364 92.6235 69.1242 85.4542 70.4141C81.0601 71.2047 82.3428 74.7313 82.3428 79.765Z" fill="#D1D5DB"/>
<path d="M85.6688 79.2564C85.6688 80.0115 85.8688 80.6236 86.8686 80.6236C87.8684 80.6236 88.0684 80.0115 88.0684 79.2564C88.0684 78.5014 87.6684 77.8893 86.8686 77.8893C86.0687 77.8893 85.6688 78.5014 85.6688 79.2564Z" fill="#F3F4F6"/>
<path d="M71.2247 87.0966C70.9774 86.7368 70.4852 86.6457 70.1253 86.893C69.7655 87.1404 69.6744 87.6326 69.9218 87.9924L71.2247 87.0966ZM76.3709 85.9633L77.1186 85.7063C77.0088 85.3871 76.7085 85.1727 76.3709 85.1727C76.0334 85.1727 75.733 85.3871 75.6233 85.7063L76.3709 85.9633ZM82.8201 87.9924C83.0675 87.6326 82.9763 87.1404 82.6165 86.893C82.2567 86.6457 81.7645 86.7368 81.5171 87.0966L82.8201 87.9924ZM69.9218 87.9924C70.1595 88.3382 70.5945 88.8058 71.179 89.1922C71.7684 89.5819 72.5521 89.9163 73.4721 89.9163V88.3351C72.9426 88.3351 72.4581 88.1424 72.051 87.8733C71.639 87.6009 71.3494 87.2779 71.2247 87.0966L69.9218 87.9924ZM73.4721 89.9163C74.5863 89.9163 75.4258 89.1227 75.9597 88.4167C76.5203 87.6755 76.9175 86.8053 77.1186 86.2203L75.6233 85.7063C75.462 86.1755 75.1345 86.8865 74.6986 87.4629C74.2361 88.0745 73.8073 88.3351 73.4721 88.3351V89.9163ZM75.6233 86.2203C75.8244 86.8053 76.2216 87.6755 76.7821 88.4167C77.3161 89.1227 78.1556 89.9163 79.2698 89.9163V88.3351C78.9345 88.3351 78.5058 88.0745 78.0433 87.4629C77.6073 86.8865 77.2799 86.1755 77.1186 85.7063L75.6233 86.2203ZM79.2698 89.9163C80.1897 89.9163 80.9735 89.5819 81.5629 89.1922C82.1473 88.8058 82.5824 88.3382 82.8201 87.9924L81.5171 87.0966C81.3925 87.2779 81.1028 87.6009 80.6908 87.8733C80.2837 88.1424 79.7992 88.3351 79.2698 88.3351V89.9163Z" fill="#D1D5DB"/>
<path d="M81.197 85.1511C81.197 85.8922 77.81 86.8378 76.7351 87.1193C76.5227 87.1749 76.3012 87.1749 76.0888 87.1193C75.014 86.8378 71.627 85.8922 71.627 85.1511C71.627 84.2702 74.2727 83.3282 76.412 83.3282C78.5513 83.3282 81.197 84.2702 81.197 85.1511Z" fill="#D1D5DB"/>
<path d="M77.1154 60.9648C56.7769 62.2435 51.8164 55.7512 51.0723 53.0119L62.4816 46.6495L75.3791 44.2637L93.2373 53.5421C92.1625 55.7512 89.6224 60.1784 77.1154 60.9648Z" fill="#D1D5DB"/>
<path fill-rule="evenodd" clip-rule="evenodd" d="M72.607 110.676C98.6627 110.676 117.764 102.957 117.764 82.1933C117.764 56.2175 98.6627 36.6216 72.607 36.6216C46.5512 36.6216 27.8818 58.0403 27.8818 82.1933C27.8818 102.957 46.5512 110.676 72.607 110.676ZM71.5829 102.701C90.7489 102.701 104.8 97.0488 104.8 81.8431C104.8 62.8208 90.7489 48.4706 71.5829 48.4706C52.4169 48.4706 38.6841 64.1557 38.6841 81.8431C38.6841 97.0488 52.4169 102.701 71.5829 102.701Z" fill="#F3F4F6"/>
<path fill-rule="evenodd" clip-rule="evenodd" d="M17.2196 65.1235C20.1091 61.888 25.3171 62.4247 27.486 66.1814L30.6626 71.6833C32.8315 75.4401 30.6923 80.2186 26.4456 81.1033L25.0644 81.391C24.9854 81.4075 24.9062 81.4224 24.8271 81.4358C24.7973 81.5179 24.7595 81.5978 24.7151 81.6741C23.4574 83.8361 22.8587 88.8168 29.0554 94.5812C35.0933 100.198 40.3128 100.606 42.7154 100.007C42.8858 99.9641 43.0629 99.9519 43.2337 99.9735L43.5482 99.35C45.5018 95.477 50.6712 94.6475 53.7386 97.7148L58.2309 102.207C61.2982 105.274 60.4687 110.444 56.5956 112.397L56.3051 112.544C56.2255 112.67 56.1121 112.78 55.9645 112.86C48.3149 117.011 31.1187 115.005 21.7125 101.924C9.93948 85.5522 11.1255 71.632 15.7675 66.6651C15.8466 66.5804 15.9367 66.5154 16.0331 66.4692C16.1121 66.3694 16.1943 66.2715 16.2799 66.1757L17.2196 65.1235Z" fill="#D1D5DB"/>
<path d="M108.265 35.446C108.672 34.5208 109.076 33.8066 109.477 33.3033C109.889 32.7956 110.316 32.4361 110.758 32.2248C111.2 32.0134 111.74 31.8592 112.377 31.762C113.157 31.6423 113.779 31.4724 114.244 31.2522C114.716 31.0355 115.059 30.6859 115.271 30.2036C115.497 29.6896 115.5 29.2001 115.28 28.7352C115.063 28.2624 114.694 27.9112 114.172 27.6816C113.832 27.5321 113.481 27.472 113.119 27.5015C112.76 27.523 112.425 27.6401 112.115 27.8527C111.808 28.0574 111.567 28.3478 111.392 28.7238L107.62 27.0648C108.13 25.9488 108.803 25.1266 109.639 24.5979C110.487 24.0649 111.422 23.806 112.444 23.8214C113.469 23.8289 114.516 24.0674 115.583 24.5369C116.738 25.0447 117.682 25.677 118.416 26.4338C119.157 27.1941 119.622 28.0356 119.811 28.9586C120.007 29.8849 119.89 30.8384 119.459 31.819C119.045 32.76 118.462 33.4617 117.712 33.9242C116.961 34.3867 116.045 34.6872 114.965 34.8255C114.396 34.8961 113.914 35.005 113.519 35.1521C113.136 35.2948 112.8 35.5106 112.512 35.7994C112.225 36.0882 111.972 36.4817 111.753 36.9799L111.607 37.312L108.119 35.7781L108.265 35.446ZM107.512 42.0512C107.124 41.8807 106.806 41.6276 106.558 41.2917C106.309 40.9559 106.163 40.5801 106.119 40.1645C106.075 39.7489 106.144 39.3452 106.326 38.9533C106.485 38.5702 106.731 38.2583 107.063 38.0176C107.396 37.7769 107.77 37.6346 108.185 37.5909C108.601 37.5472 109.003 37.6106 109.39 37.781C109.762 37.9445 110.068 38.1924 110.309 38.5248C110.557 38.8607 110.709 39.2342 110.764 39.6454C110.827 40.06 110.779 40.4589 110.62 40.8419C110.438 41.2338 110.176 41.5523 109.832 41.7975C109.491 42.0348 109.112 42.1792 108.693 42.2308C108.277 42.2745 107.883 42.2146 107.512 42.0512Z" fill="#D1D5DB"/>
<path d="M119.826 43.5493C120.364 42.9945 120.843 42.5901 121.264 42.336C121.694 42.0817 122.096 41.9376 122.469 41.9038C122.842 41.8699 123.27 41.9028 123.752 42.0026C124.343 42.124 124.834 42.1677 125.225 42.1335C125.622 42.1039 125.96 41.9445 126.24 41.6552C126.539 41.347 126.671 40.997 126.637 40.6054C126.607 40.2089 126.436 39.8591 126.123 39.5558C125.919 39.3583 125.684 39.2219 125.416 39.1467C125.154 39.0668 124.883 39.0618 124.604 39.1315C124.329 39.1966 124.079 39.3406 123.854 39.5636L121.592 37.372C122.254 36.7078 122.955 36.2975 123.695 36.1411C124.444 35.9846 125.183 36.0476 125.911 36.3303C126.644 36.6083 127.33 37.0574 127.971 37.6777C128.663 38.3485 129.171 39.0526 129.496 39.7899C129.825 40.5318 129.934 41.2585 129.824 41.9699C129.719 42.686 129.381 43.338 128.811 43.926C128.265 44.4903 127.661 44.8383 127 44.9702C126.339 45.102 125.603 45.0739 124.792 44.8859C124.366 44.7852 123.991 44.7351 123.669 44.7355C123.356 44.7357 123.059 44.8011 122.776 44.9317C122.493 45.0622 122.207 45.2768 121.918 45.5755L121.725 45.7747L119.633 43.7485L119.826 43.5493ZM117.53 48.0821C117.298 47.8569 117.138 47.591 117.049 47.2842C116.96 46.9774 116.955 46.6693 117.034 46.3599C117.113 46.0505 117.27 45.7795 117.505 45.547C117.72 45.3148 117.979 45.1567 118.281 45.0725C118.584 44.9884 118.889 44.9859 119.199 45.0651C119.508 45.1442 119.779 45.2964 120.012 45.5215C120.234 45.7375 120.388 45.9965 120.472 46.2987C120.561 46.6055 120.57 46.9135 120.501 47.2228C120.436 47.5367 120.295 47.8097 120.079 48.0419C119.845 48.2744 119.572 48.4328 119.26 48.5171C118.953 48.5966 118.643 48.5992 118.329 48.5248C118.019 48.4456 117.753 48.298 117.53 48.0821Z" fill="#D1D5DB"/>
</svg>
