<svg width="81" height="40" viewBox="0 0 81 40" fill="none" xmlns="http://www.w3.org/2000/svg">
<path d="M17.5757 15.3654H19.9999V18.1937H17.5757V23.9311H13.9394V20.3755C11.3535 20.9008 8.78785 21.1836 5.05049 21.1836H0.808078V18.4159H2.42424V12.6786H1.21212V9.95132H12.3636V12.6786H11.1515V18.1129C12.1414 17.9917 13.0707 17.8503 13.9394 17.6887V9.7493H17.5757V15.3654ZM2.80807 28.7391V22.7392H6.52523V25.9311H17.9797V28.7391H2.80807ZM6.06059 18.4159C6.56564 18.3957 7.05048 18.3957 7.51513 18.3755V12.6786H6.06059V18.4159ZM40.2019 16.7796V19.6079H37.7777V28.7391H34.1413V25.5674C31.5555 26.3149 28.9898 26.7391 25.2524 26.7391H21.6161V10.3554H31.9595V13.0826H25.2524V23.9715C28.9494 23.9715 31.5757 23.6078 34.1413 22.8806V9.7493H37.7777V16.7796H40.2019ZM60.4039 16.7796V19.6079H57.9796V28.7391H54.3433V9.7493H57.9796V16.7796H60.4039ZM41.8181 26.7391V10.3554H52.3837V26.7391H41.8181ZM45.4544 23.9715H48.7877V13.123H45.4544V23.9715ZM75.8584 9.7493H79.3937V20.6988H75.8584V9.7493ZM60.8079 18.5372C63.1715 18.0523 64.9493 17.3048 65.9392 16.3553L62.02 16.5978V13.9715H66.7877V12.6786H62.4241V9.95132H70.323V13.5877H71.4745V9.85031H74.9089V20.6988H71.4745V16.4159H69.7978C68.7271 18.4967 66.0402 20.2139 61.9594 21.2442L60.8079 18.5372ZM63.0099 25.8503C67.9998 25.6684 69.4543 24.6381 69.4543 22.8806V21.3452H73.0907V23.2038C73.0907 23.6887 73.0301 24.1533 72.9089 24.5775C75.2523 24.7392 77.5755 25.0624 79.3937 25.4866L78.424 28.7391C76.3432 28.0119 73.4341 27.3048 71.0907 26.921C69.4139 28.0523 66.7271 28.5977 63.3938 28.7391L63.0099 25.8503Z" fill="#3692FF"/>
</svg>
