<svg width="128" height="128" viewBox="0 0 128 128" fill="none" xmlns="http://www.w3.org/2000/svg">
<rect width="128" height="128" fill="#F4F4F4"/>
<path fill-rule="evenodd" clip-rule="evenodd" d="M51.25 43.2857C50.1228 43.2857 49.0418 43.7372 48.2448 44.541C47.4478 45.3447 47 46.4348 47 47.5714V64.7143C47 65.8509 47.4478 66.941 48.2448 67.7447C49.0418 68.5485 50.1228 69 51.25 69H76.75C77.8772 69 78.9582 68.5485 79.7552 67.7447C80.5522 66.941 81 65.8509 81 64.7143V47.5714C81 46.4348 80.5522 45.3447 79.7552 44.541C78.9582 43.7372 77.8772 43.2857 76.75 43.2857H73.3797C72.8162 43.2856 72.2758 43.0597 71.8774 42.6579L69.4953 40.2557C68.6984 39.4519 67.6176 39.0002 66.4905 39H61.5095C60.3824 39.0002 59.3016 39.4519 58.5048 40.2557L56.1226 42.6579C55.7242 43.0597 55.1838 43.2856 54.6202 43.2857H51.25ZM64 62.5714C64.8372 62.5714 65.6662 62.4051 66.4396 62.0821C67.2131 61.759 67.9158 61.2855 68.5078 60.6885C69.0998 60.0916 69.5694 59.3829 69.8897 58.603C70.2101 57.823 70.375 56.9871 70.375 56.1429C70.375 55.2986 70.2101 54.4627 69.8897 53.6827C69.5694 52.9028 69.0998 52.1941 68.5078 51.5972C67.9158 51.0002 67.2131 50.5267 66.4396 50.2036C65.6662 49.8806 64.8372 49.7143 64 49.7143C62.3092 49.7143 60.6877 50.3916 59.4922 51.5972C58.2967 52.8028 57.625 54.4379 57.625 56.1429C57.625 57.8478 58.2967 59.483 59.4922 60.6885C60.6877 61.8941 62.3092 62.5714 64 62.5714Z" fill="#BFBFBF"/>
<path fill-rule="evenodd" clip-rule="evenodd" d="M84.3477 80.541V83.9219C84.2148 84.082 84.0098 84.2559 83.7324 84.4434C83.4551 84.627 83.0977 84.7852 82.6602 84.918C82.2227 85.0508 81.6934 85.1172 81.0723 85.1172C80.5215 85.1172 80.0195 85.0273 79.5664 84.8477C79.1133 84.6641 78.7227 84.3965 78.3945 84.0449C78.0703 83.6934 77.8203 83.2637 77.6445 82.7559C77.4688 82.2441 77.3809 81.6602 77.3809 81.0039V80.4707C77.3809 79.8145 77.4648 79.2305 77.6328 78.7188C77.8047 78.207 78.0488 77.7754 78.3652 77.4238C78.6816 77.0723 79.0586 76.8047 79.4961 76.6211C79.9336 76.4375 80.4199 76.3457 80.9551 76.3457C81.6973 76.3457 82.3066 76.4668 82.7832 76.709C83.2598 76.9473 83.623 77.2793 83.873 77.7051C84.127 78.127 84.2832 78.6113 84.3418 79.1582H82.6367C82.5938 78.8691 82.5117 78.6172 82.3906 78.4023C82.2695 78.1875 82.0957 78.0195 81.8691 77.8984C81.6465 77.7773 81.3574 77.7168 81.002 77.7168C80.709 77.7168 80.4473 77.7773 80.2168 77.8984C79.9902 78.0156 79.7988 78.1895 79.6426 78.4199C79.4863 78.6504 79.3672 78.9355 79.2852 79.2754C79.2031 79.6152 79.1621 80.0098 79.1621 80.459V81.0039C79.1621 81.4492 79.2051 81.8438 79.291 82.1875C79.377 82.5273 79.5039 82.8145 79.6719 83.0488C79.8438 83.2793 80.0547 83.4531 80.3047 83.5703C80.5547 83.6875 80.8457 83.7461 81.1777 83.7461C81.4551 83.7461 81.6855 83.7227 81.8691 83.6758C82.0566 83.6289 82.207 83.5723 82.3203 83.5059C82.4375 83.4355 82.5273 83.3691 82.5898 83.3066V81.7949H80.9844V80.541H84.3477ZM91.4902 83.6289V85H87.5234H86.9492H85.7656V76.4688H86.9492H87.5234H91.4844V77.8457H87.5234V79.9434H90.8984V81.2793H87.5234V83.6289H91.4902ZM73.2676 76.4688H73.7129L76.9004 85H75.0254L74.4337 83.2012H71.3675L70.7773 85H68.9082L72.0781 76.4688H72.5117H73.2676ZM71.8193 81.8242L72.8987 78.5342L73.9808 81.8242H71.8193ZM60.4941 76.4688H61.3027L63.4941 82.7324L65.6855 76.4688H66.4941H67.1738H67.9824V85H66.2246V82.5742L66.3995 78.6121L64.0918 85H62.8965L60.5888 78.6121L60.7637 82.5742V85H59.0117V76.4688H59.8145H60.4941ZM57.3652 85V76.4688H55.6133V85H57.3652ZM51.2422 80.5352V80.9395C51.2422 81.5879 51.1543 82.1699 50.9785 82.6855C50.8027 83.2012 50.5547 83.6406 50.2344 84.0039C49.9141 84.3633 49.5312 84.6387 49.0859 84.8301C48.6445 85.0215 48.1543 85.1172 47.6152 85.1172C47.0801 85.1172 46.5898 85.0215 46.1445 84.8301C45.7031 84.6387 45.3203 84.3633 44.9961 84.0039C44.6719 83.6406 44.4199 83.2012 44.2402 82.6855C44.0645 82.1699 43.9766 81.5879 43.9766 80.9395V80.5352C43.9766 79.8828 44.0645 79.3008 44.2402 78.7891C44.416 78.2734 44.6641 77.834 44.9844 77.4707C45.3086 77.1074 45.6914 76.8301 46.1328 76.6387C46.5781 76.4473 47.0684 76.3516 47.6035 76.3516C48.1426 76.3516 48.6328 76.4473 49.0742 76.6387C49.5195 76.8301 49.9023 77.1074 50.2227 77.4707C50.5469 77.834 50.7969 78.2734 50.9727 78.7891C51.1523 79.3008 51.2422 79.8828 51.2422 80.5352ZM49.4668 80.9395V80.5234C49.4668 80.0703 49.4258 79.6719 49.3438 79.3281C49.2617 78.9844 49.1406 78.6953 48.9805 78.4609C48.8203 78.2266 48.625 78.0508 48.3945 77.9336C48.1641 77.8125 47.9004 77.752 47.6035 77.752C47.3066 77.752 47.043 77.8125 46.8125 77.9336C46.5859 78.0508 46.3926 78.2266 46.2324 78.4609C46.0762 78.6953 45.957 78.9844 45.875 79.3281C45.793 79.6719 45.752 80.0703 45.752 80.5234V80.9395C45.752 81.3887 45.793 81.7871 45.875 82.1348C45.957 82.4785 46.0781 82.7695 46.2383 83.0078C46.3984 83.2422 46.5938 83.4199 46.8242 83.541C47.0547 83.6621 47.3184 83.7227 47.6152 83.7227C47.9121 83.7227 48.1758 83.6621 48.4062 83.541C48.6367 83.4199 48.8301 83.2422 48.9863 83.0078C49.1426 82.7695 49.2617 82.4785 49.3438 82.1348C49.4258 81.7871 49.4668 81.3887 49.4668 80.9395ZM42.7051 85V76.4688H40.9531V82.1934L37.5195 76.4688H35.7617V85H37.5195V79.2812L40.9473 85H42.7051Z" fill="#7E7E7E"/>
</svg>
