<svg width="175" height="138" viewBox="0 0 175 138" fill="none" xmlns="http://www.w3.org/2000/svg">
<path d="M69.0466 29.3371C72.2265 37.5521 66.564 47.4014 59.3348 50.1997C52.1055 52.998 41.5849 49.413 38.405 41.198C35.2251 32.983 39.3465 20.859 46.5757 18.0607C56.2154 14.3293 65.8667 21.1221 69.0466 29.3371Z" fill="#D1D5DB"/>
<path d="M73.1228 28.9829C71.4086 37.6236 78.6864 46.3476 86.2901 47.856C93.8938 49.3644 103.638 44.0171 105.352 35.3765C107.066 26.7359 100.914 15.5053 93.3098 13.9969C83.1708 11.9855 74.8369 20.3423 73.1228 28.9829Z" fill="#D1D5DB"/>
<path d="M147.866 91.9788C147.866 121.048 119.664 131.854 81.1945 131.854C42.7251 131.854 15.1611 121.048 15.1611 91.9788C15.1611 58.1646 42.7251 28.1785 81.1945 28.1785C119.664 28.1785 147.866 55.6126 147.866 91.9788Z" fill="#F3F4F6"/>
<path d="M129.762 91.6442C129.762 112.955 110.003 120.876 83.0515 120.876C56.0996 120.876 36.7881 112.955 36.7881 91.6442C36.7881 66.8557 56.0996 44.8735 83.0515 44.8735C110.003 44.8735 129.762 64.9849 129.762 91.6442Z" fill="#F9FAFB"/>
<path d="M80.5082 88.6711C80.5082 95.7183 76.211 103.449 70.2058 103.449C64.2007 103.449 54.5 97.7071 54.5 87.1801C54.5 77.291 64.9796 73.774 75.8086 75.5799C82.4457 76.6867 80.5082 81.6239 80.5082 88.6711Z" fill="#D1D5DB"/>
<path d="M75.4857 87.9591C75.4857 89.0162 75.1837 89.8731 73.6735 89.8731C72.1634 89.8731 71.8613 89.0162 71.8613 87.9591C71.8613 86.902 72.4654 86.0451 73.6735 86.0451C74.8817 86.0451 75.4857 86.902 75.4857 87.9591Z" fill="#F3F4F6"/>
<path d="M98.2795 88.6712C98.2795 95.7184 102.262 103.449 107.828 103.449C113.394 103.449 122.386 97.7073 122.386 87.1803C122.386 77.2912 112.672 73.7742 102.635 75.5801C96.4837 76.6869 98.2795 81.6241 98.2795 88.6712Z" fill="#D1D5DB"/>
<path d="M102.935 87.9593C102.935 89.0164 103.215 89.8733 104.614 89.8733C106.014 89.8733 106.294 89.0164 106.294 87.9593C106.294 86.9022 105.734 86.0453 104.614 86.0453C103.494 86.0453 102.935 86.9022 102.935 87.9593Z" fill="#F3F4F6"/>
<path d="M82.7138 98.9358C82.3675 98.4321 81.6784 98.3045 81.1747 98.6508C80.671 98.9971 80.5434 99.6862 80.8897 100.19L82.7138 98.9358ZM89.9185 97.3492L90.9652 96.9894C90.8116 96.5424 90.3911 96.2424 89.9185 96.2424C89.4459 96.2424 89.0254 96.5424 88.8718 96.9894L89.9185 97.3492ZM98.9474 100.19C99.2937 99.6862 99.1661 98.9971 98.6623 98.6508C98.1586 98.3045 97.4695 98.4321 97.1232 98.9358L98.9474 100.19ZM80.8897 100.19C81.2225 100.674 81.8315 101.329 82.6498 101.87C83.475 102.415 84.5722 102.883 85.8601 102.883V100.67C85.1189 100.67 84.4406 100.4 83.8707 100.023C83.2939 99.6417 82.8883 99.1896 82.7138 98.9358L80.8897 100.19ZM85.8601 102.883C87.42 102.883 88.5953 101.772 89.3428 100.784C90.1276 99.7462 90.6837 98.5279 90.9652 97.709L88.8718 96.9894C88.646 97.6462 88.1875 98.6416 87.5772 99.4486C86.9297 100.305 86.3295 100.67 85.8601 100.67V102.883ZM88.8718 97.709C89.1533 98.5279 89.7094 99.7462 90.4942 100.784C91.2417 101.772 92.4171 102.883 93.9769 102.883V100.67C93.5076 100.67 92.9073 100.305 92.2598 99.4486C91.6495 98.6416 91.191 97.6462 90.9652 96.9894L88.8718 97.709ZM93.9769 102.883C95.2648 102.883 96.3621 102.415 97.1872 101.87C98.0055 101.329 98.6146 100.674 98.9474 100.19L97.1232 98.9358C96.9487 99.1896 96.5432 99.6417 95.9664 100.023C95.3965 100.4 94.7182 100.67 93.9769 100.67V102.883Z" fill="#D1D5DB"/>
<path d="M96.6754 96.2116C96.6754 97.2491 91.9336 98.573 90.4288 98.967C90.1314 99.0449 89.8213 99.0449 89.5239 98.967C88.0192 98.573 83.2773 97.2491 83.2773 96.2116C83.2773 94.9783 86.9813 93.6595 89.9764 93.6595C92.9714 93.6595 96.6754 94.9783 96.6754 96.2116Z" fill="#D1D5DB"/>
<path d="M90.9593 62.3511C62.4856 64.1413 55.5407 55.0521 54.499 51.2171L70.4721 42.3098L88.5287 38.9696L113.53 51.9594C112.025 55.0521 108.469 61.2503 90.9593 62.3511Z" fill="#D1D5DB"/>
<path fill-rule="evenodd" clip-rule="evenodd" d="M84.6484 131.946C121.126 131.946 147.869 121.14 147.869 92.0708C147.869 55.7046 121.126 28.2704 84.6484 28.2704C48.1704 28.2704 22.0332 58.2566 22.0332 92.0708C22.0332 121.14 48.1704 131.946 84.6484 131.946ZM83.2147 120.781C110.047 120.781 129.718 112.868 129.718 91.5805C129.718 64.9492 110.047 44.859 83.2147 44.859C56.3822 44.859 37.1563 66.8181 37.1563 91.5805C37.1563 112.868 56.3822 120.781 83.2147 120.781Z" fill="#F3F4F6"/>
<path fill-rule="evenodd" clip-rule="evenodd" d="M7.1065 68.173C11.1518 63.6434 18.4429 64.3948 21.4795 69.6542L25.9266 77.3569C28.9631 82.6163 25.9683 89.3062 20.0229 90.5448L18.0892 90.9476C17.9785 90.9707 17.8678 90.9915 17.757 91.0103C17.7153 91.1253 17.6623 91.2371 17.6001 91.3439C15.8394 94.3707 15.0011 101.344 23.6765 109.414C32.1296 117.277 39.4369 117.849 42.8006 117.009C43.0392 116.95 43.2871 116.933 43.5262 116.963L43.9665 116.09C46.7016 110.668 53.9387 109.507 58.233 113.801L64.5222 120.09C68.8165 124.384 67.6552 131.622 62.2329 134.357L61.8262 134.562C61.7148 134.739 61.5559 134.892 61.3494 135.004C50.6399 140.816 26.5652 138.007 13.3966 119.694C-3.0857 96.7732 -1.42524 77.2849 5.07355 70.3313C5.18433 70.2127 5.31047 70.1217 5.44543 70.057C5.5559 69.9174 5.67104 69.7803 5.79084 69.6462L7.1065 68.173Z" fill="#D1D5DB"/>
<path d="M134.65 26.4415C135.22 25.1462 135.785 24.1463 136.346 23.4417C136.923 22.731 137.521 22.2276 138.14 21.9318C138.759 21.6359 139.515 21.4199 140.407 21.2839C141.498 21.1163 142.369 20.8784 143.02 20.5702C143.682 20.2668 144.161 19.7774 144.458 19.1021C144.775 18.3825 144.779 17.6973 144.471 17.0464C144.167 16.3844 143.65 15.8928 142.92 15.5714C142.444 15.362 141.952 15.2779 141.445 15.3192C140.943 15.3493 140.475 15.5132 140.04 15.8109C139.61 16.0974 139.272 16.5039 139.028 17.0305L133.747 14.7078C134.46 13.1455 135.403 11.9943 136.574 11.2542C137.761 10.5079 139.07 10.1455 140.501 10.167C141.936 10.1775 143.401 10.5114 144.896 11.1688C146.512 11.8797 147.834 12.7649 148.861 13.8244C149.899 14.8888 150.55 16.067 150.814 17.3591C151.089 18.656 150.925 19.9909 150.321 21.3636C149.742 22.681 148.926 23.6635 147.875 24.311C146.824 24.9585 145.542 25.3791 144.03 25.5728C143.234 25.6717 142.559 25.8241 142.006 26.0301C141.469 26.2299 140.999 26.5319 140.596 26.9362C140.194 27.3406 139.839 27.8915 139.533 28.5889L139.328 29.0539L134.446 26.9065L134.65 26.4415ZM133.596 35.6887C133.053 35.4501 132.608 35.0957 132.26 34.6255C131.912 34.1553 131.707 33.6293 131.646 33.0474C131.585 32.4656 131.681 31.9003 131.936 31.3517C132.158 30.8154 132.502 30.3788 132.968 30.0417C133.433 29.7047 133.957 29.5056 134.539 29.4444C135.12 29.3832 135.683 29.4719 136.225 29.7105C136.745 29.9394 137.174 30.2865 137.511 30.7518C137.859 31.222 138.072 31.745 138.149 32.3206C138.237 32.9011 138.17 33.4595 137.947 33.9958C137.693 34.5444 137.325 34.9904 136.843 35.3336C136.367 35.6658 135.835 35.868 135.249 35.9402C134.667 36.0014 134.116 35.9176 133.596 35.6887Z" fill="#D1D5DB"/>
<path d="M150.617 38.1128C151.37 37.3361 152.041 36.7699 152.63 36.4141C153.233 36.0582 153.795 35.8565 154.317 35.809C154.839 35.7616 155.438 35.8077 156.114 35.9474C156.94 36.1174 157.627 36.1785 158.176 36.1306C158.731 36.0892 159.204 35.866 159.597 35.4611C160.015 35.0296 160.2 34.5396 160.152 33.9913C160.111 33.4363 159.871 32.9465 159.433 32.522C159.147 32.2454 158.817 32.0544 158.443 31.9492C158.075 31.8373 157.696 31.8302 157.305 31.9279C156.921 32.019 156.571 32.2206 156.256 32.5328L153.089 29.4645C154.016 28.5347 154.997 27.9603 156.033 27.7413C157.082 27.5222 158.117 27.6105 159.136 28.0062C160.162 28.3954 161.123 29.0241 162.019 29.8925C162.988 30.8316 163.7 31.8173 164.154 32.8496C164.615 33.8882 164.769 34.9056 164.614 35.9017C164.467 36.9042 163.994 37.817 163.197 38.6402C162.431 39.4302 161.586 39.9174 160.66 40.102C159.735 40.2865 158.705 40.2472 157.57 39.984C156.973 39.843 156.448 39.7729 155.997 39.7734C155.559 39.7738 155.143 39.8653 154.747 40.0481C154.351 40.2308 153.95 40.5313 153.545 40.9495L153.275 41.2283L150.347 38.3916L150.617 38.1128ZM147.403 44.4587C147.078 44.1435 146.853 43.7712 146.729 43.3417C146.604 42.9122 146.597 42.4808 146.708 42.0476C146.819 41.6145 147.039 41.2351 147.367 40.9096C147.669 40.5845 148.031 40.3631 148.455 40.2453C148.878 40.1275 149.306 40.124 149.739 40.2349C150.172 40.3457 150.551 40.5587 150.877 40.8739C151.189 41.1762 151.404 41.5389 151.521 41.962C151.646 42.3915 151.659 42.8227 151.561 43.2557C151.47 43.6951 151.274 44.0774 150.971 44.4025C150.643 44.7279 150.261 44.9497 149.825 45.0677C149.395 45.1791 148.961 45.1826 148.521 45.0784C148.088 44.9676 147.715 44.761 147.403 44.4587Z" fill="#D1D5DB"/>
</svg>
