<svg width="40" height="40" viewBox="0 0 40 40" fill="none" xmlns="http://www.w3.org/2000/svg"><rect width="40" height="40" rx="11.178" fill="#3692FF"/><path d="M19.314 11.137c.5 1.72-.82 3.614-2.334 4.054-1.513.44-3.58-.472-4.08-2.192-.5-1.72.549-4.102 2.062-4.542 2.018-.585 3.853.96 4.352 2.68zM20.146 11.137c-.499 1.72.821 3.614 2.335 4.054 1.513.44 3.58-.472 4.08-2.192.499-1.72-.55-4.102-2.063-4.542-2.017-.585-3.852.96-4.352 2.68z" fill="#222327"/><path d="M29.517 23.7c0 4.373-4.304 6-10.174 6-5.87 0-10.076-1.627-10.076-6 0-5.088 4.206-9.6 10.076-9.6s10.174 4.127 10.174 9.6z" fill="#F3D6DD"/><path d="M17.4 22.836c0 1.433-.922 3.004-2.212 3.004-1.289 0-3.372-1.167-3.372-3.307 0-2.01 2.25-2.725 4.575-2.358 1.425.225 1.01 1.229 1.01 2.661z" fill="#222327"/><path d="M16.322 22.691c0 .215-.065.39-.39.39-.324 0-.388-.175-.388-.39 0-.215.13-.389.389-.389.26 0 .389.174.389.39z" fill="#fff"/><path d="M21.322 22.836c0 1.433.923 3.004 2.212 3.004 1.29 0 3.372-1.167 3.372-3.307 0-2.01-2.25-2.725-4.575-2.358-1.425.225-1.009 1.229-1.009 2.661z" fill="#222327"/><path d="M22.401 22.691c0 .215.065.39.39.39.324 0 .389-.175.389-.39 0-.215-.13-.389-.39-.389-.259 0-.389.174-.389.39z" fill="#fff"/><path d="M17.875 24.908a.251.251 0 10-.415.285l.415-.285zm1.442-.308l.238-.082a.252.252 0 00-.475 0l.237.082zm1.858.593a.252.252 0 00-.415-.285l.415.285zm-3.715 0c.07.1.196.236.365.348.171.113.4.21.668.21v-.502a.71.71 0 01-.39-.127.887.887 0 01-.228-.214l-.415.285zm1.032.559c.33 0 .576-.235.73-.438.161-.213.275-.464.333-.632l-.475-.164a1.908 1.908 0 01-.26.493c-.13.172-.245.238-.328.238v.503zm.588-1.07c.058.168.172.419.333.632.154.203.4.438.73.438v-.503c-.083 0-.198-.066-.329-.238a1.908 1.908 0 01-.259-.493l-.475.164zm1.062 1.07c.269 0 .497-.098.668-.21.169-.113.295-.248.365-.35l-.415-.284a.887.887 0 01-.228.213.71.71 0 01-.39.128v.503z" fill="#222327"/><path d="M20.69 24.369c0 .208-.942.474-1.259.557a.402.402 0 01-.205 0c-.316-.083-1.259-.349-1.259-.557 0-.25.753-.519 1.362-.519.609 0 1.362.268 1.362.519zM19.166 17.7c-3.784 0-5.175-1.325-5.4-2.1l1.8-1.95 3.9-.675 5.4 2.625c-.325.624-1.912 2.1-5.7 2.1z" fill="#222327"/><path fill-rule="evenodd" clip-rule="evenodd" d="M19.69 31.874c7.82 0 13.553-2.196 13.553-8.105 0-7.393-5.733-12.97-13.553-12.97-7.82 0-13.423 6.096-13.423 12.97 0 5.909 5.603 8.105 13.423 8.105zm-.308-2.269c5.753 0 9.97-1.608 9.97-5.936 0-5.413-4.217-9.497-9.97-9.497-5.752 0-9.873 4.464-9.873 9.497 0 4.328 4.121 5.936 9.873 5.936z" fill="#fff"/></svg>