<svg width="196" height="230" viewBox="0 0 196 230" fill="none" xmlns="http://www.w3.org/2000/svg">
<path d="M86.0466 52.3371C89.2265 60.5521 83.564 70.4014 76.3348 73.1997C69.1055 75.998 58.5849 72.413 55.405 64.198C52.2251 55.983 56.3465 43.859 63.5757 41.0607C73.2154 37.3293 82.8667 44.1221 86.0466 52.3371Z" fill="#D1D5DB"/>
<path d="M90.1228 51.9829C88.4086 60.6236 95.6864 69.3476 103.29 70.856C110.894 72.3644 120.638 67.0171 122.352 58.3765C124.066 49.7359 117.914 38.5053 110.31 36.9969C100.171 34.9855 91.8369 43.3423 90.1228 51.9829Z" fill="#D1D5DB"/>
<path d="M164.866 114.979C164.866 144.048 136.664 154.854 98.1945 154.854C59.7251 154.854 32.1611 144.048 32.1611 114.979C32.1611 81.1646 59.7251 51.1785 98.1945 51.1785C136.664 51.1785 164.866 78.6126 164.866 114.979Z" fill="#F3F4F6"/>
<path d="M146.762 114.644C146.762 135.955 127.003 143.876 100.051 143.876C73.0996 143.876 53.7881 135.955 53.7881 114.644C53.7881 89.8557 73.0996 67.8735 100.051 67.8735C127.003 67.8735 146.762 87.9849 146.762 114.644Z" fill="#F9FAFB"/>
<path d="M97.5082 111.671C97.5082 118.718 93.211 126.449 87.2058 126.449C81.2007 126.449 71.5 120.707 71.5 110.18C71.5 100.291 81.9796 96.774 92.8086 98.5799C99.4457 99.6867 97.5082 104.624 97.5082 111.671Z" fill="#D1D5DB"/>
<path d="M92.4857 110.959C92.4857 112.016 92.1837 112.873 90.6735 112.873C89.1634 112.873 88.8613 112.016 88.8613 110.959C88.8613 109.902 89.4654 109.045 90.6735 109.045C91.8817 109.045 92.4857 109.902 92.4857 110.959Z" fill="#F3F4F6"/>
<path d="M115.279 111.671C115.279 118.718 119.262 126.449 124.828 126.449C130.394 126.449 139.386 120.707 139.386 110.18C139.386 100.291 129.672 96.7742 119.635 98.5801C113.484 99.6869 115.279 104.624 115.279 111.671Z" fill="#D1D5DB"/>
<path d="M119.935 110.959C119.935 112.016 120.215 112.873 121.614 112.873C123.014 112.873 123.294 112.016 123.294 110.959C123.294 109.902 122.734 109.045 121.614 109.045C120.494 109.045 119.935 109.902 119.935 110.959Z" fill="#F3F4F6"/>
<path d="M99.7138 121.936C99.3675 121.432 98.6784 121.304 98.1747 121.651C97.671 121.997 97.5434 122.686 97.8897 123.19L99.7138 121.936ZM106.919 120.349L107.965 119.989C107.812 119.542 107.391 119.242 106.919 119.242C106.446 119.242 106.025 119.542 105.872 119.989L106.919 120.349ZM115.947 123.19C116.294 122.686 116.166 121.997 115.662 121.651C115.159 121.304 114.47 121.432 114.123 121.936L115.947 123.19ZM97.8897 123.19C98.2225 123.674 98.8315 124.329 99.6498 124.87C100.475 125.415 101.572 125.883 102.86 125.883V123.67C102.119 123.67 101.441 123.4 100.871 123.023C100.294 122.642 99.8883 122.19 99.7138 121.936L97.8897 123.19ZM102.86 125.883C104.42 125.883 105.595 124.772 106.343 123.784C107.128 122.746 107.684 121.528 107.965 120.709L105.872 119.989C105.646 120.646 105.188 121.642 104.577 122.449C103.93 123.305 103.329 123.67 102.86 123.67V125.883ZM105.872 120.709C106.153 121.528 106.709 122.746 107.494 123.784C108.242 124.772 109.417 125.883 110.977 125.883V123.67C110.508 123.67 109.907 123.305 109.26 122.449C108.65 121.642 108.191 120.646 107.965 119.989L105.872 120.709ZM110.977 125.883C112.265 125.883 113.362 125.415 114.187 124.87C115.005 124.329 115.615 123.674 115.947 123.19L114.123 121.936C113.949 122.19 113.543 122.642 112.966 123.023C112.396 123.4 111.718 123.67 110.977 123.67V125.883Z" fill="#D1D5DB"/>
<path d="M113.675 119.212C113.675 120.249 108.934 121.573 107.429 121.967C107.131 122.045 106.821 122.045 106.524 121.967C105.019 121.573 100.277 120.249 100.277 119.212C100.277 117.978 103.981 116.66 106.976 116.66C109.971 116.66 113.675 117.978 113.675 119.212Z" fill="#D1D5DB"/>
<path d="M107.959 85.3511C79.4856 87.1413 72.5407 78.0521 71.499 74.2171L87.4721 65.3098L105.529 61.9696L130.53 74.9594C129.025 78.0521 125.469 84.2503 107.959 85.3511Z" fill="#D1D5DB"/>
<path fill-rule="evenodd" clip-rule="evenodd" d="M101.648 154.946C138.126 154.946 164.869 144.14 164.869 115.071C164.869 78.7046 138.126 51.2704 101.648 51.2704C65.1704 51.2704 39.0332 81.2566 39.0332 115.071C39.0332 144.14 65.1704 154.946 101.648 154.946ZM100.215 143.781C127.047 143.781 146.718 135.868 146.718 114.58C146.718 87.9492 127.047 67.859 100.215 67.859C73.3822 67.859 54.1563 89.8181 54.1563 114.58C54.1563 135.868 73.3822 143.781 100.215 143.781Z" fill="#F3F4F6"/>
<path fill-rule="evenodd" clip-rule="evenodd" d="M24.1065 91.173C28.1518 86.6434 35.4429 87.3948 38.4795 92.6542L42.9266 100.357C45.9631 105.616 42.9683 112.306 37.0229 113.545L35.0892 113.948C34.9785 113.971 34.8678 113.992 34.757 114.01C34.7153 114.125 34.6623 114.237 34.6001 114.344C32.8394 117.371 32.0011 124.344 40.6765 132.414C49.1296 140.277 56.4369 140.849 59.8006 140.009C60.0392 139.95 60.2871 139.933 60.5262 139.963L60.9665 139.09C63.7016 133.668 70.9387 132.507 75.233 136.801L81.5222 143.09C85.8165 147.384 84.6552 154.622 79.2329 157.357L78.8262 157.562C78.7148 157.739 78.5559 157.892 78.3494 158.004C67.6399 163.816 43.5652 161.007 30.3966 142.694C13.9143 119.773 15.5748 100.285 22.0736 93.3313C22.1843 93.2127 22.3105 93.1217 22.4454 93.057C22.5559 92.9174 22.671 92.7803 22.7908 92.6462L24.1065 91.173Z" fill="#D1D5DB"/>
<path d="M151.65 49.4415C152.22 48.1462 152.785 47.1463 153.346 46.4417C153.923 45.731 154.521 45.2276 155.14 44.9318C155.759 44.6359 156.515 44.4199 157.407 44.2839C158.498 44.1163 159.369 43.8784 160.02 43.5702C160.682 43.2668 161.161 42.7774 161.458 42.1021C161.775 41.3825 161.779 40.6973 161.471 40.0464C161.167 39.3844 160.65 38.8928 159.92 38.5714C159.444 38.362 158.952 38.2779 158.445 38.3192C157.943 38.3493 157.475 38.5132 157.04 38.8109C156.61 39.0974 156.272 39.5039 156.028 40.0305L150.747 37.7078C151.46 36.1455 152.403 34.9943 153.574 34.2542C154.761 33.5079 156.07 33.1455 157.501 33.167C158.936 33.1775 160.401 33.5114 161.896 34.1688C163.512 34.8797 164.834 35.7649 165.861 36.8244C166.899 37.8888 167.55 39.067 167.814 40.3591C168.089 41.656 167.925 42.9909 167.321 44.3636C166.742 45.681 165.926 46.6635 164.875 47.311C163.824 47.9585 162.542 48.3791 161.03 48.5728C160.234 48.6717 159.559 48.8241 159.006 49.0301C158.469 49.2299 157.999 49.5319 157.596 49.9362C157.194 50.3406 156.839 50.8915 156.533 51.5889L156.328 52.0539L151.446 49.9065L151.65 49.4415ZM150.596 58.6887C150.053 58.4501 149.608 58.0957 149.26 57.6255C148.912 57.1553 148.707 56.6293 148.646 56.0474C148.585 55.4656 148.681 54.9003 148.936 54.3517C149.158 53.8154 149.502 53.3788 149.968 53.0417C150.433 52.7047 150.957 52.5056 151.539 52.4444C152.12 52.3832 152.683 52.4719 153.225 52.7105C153.745 52.9394 154.174 53.2865 154.511 53.7518C154.859 54.222 155.072 54.745 155.149 55.3206C155.237 55.9011 155.17 56.4595 154.947 56.9958C154.693 57.5444 154.325 57.9904 153.843 58.3336C153.367 58.6658 152.835 58.868 152.249 58.9402C151.667 59.0014 151.116 58.9176 150.596 58.6887Z" fill="#D1D5DB"/>
<path d="M167.617 61.1128C168.37 60.3361 169.041 59.7699 169.63 59.4141C170.233 59.0582 170.795 58.8565 171.317 58.809C171.839 58.7616 172.438 58.8077 173.114 58.9474C173.94 59.1174 174.627 59.1785 175.176 59.1306C175.731 59.0892 176.204 58.866 176.597 58.4611C177.015 58.0296 177.2 57.5396 177.152 56.9913C177.111 56.4363 176.871 55.9465 176.433 55.522C176.147 55.2454 175.817 55.0544 175.443 54.9492C175.075 54.8373 174.696 54.8302 174.305 54.9279C173.921 55.019 173.571 55.2206 173.256 55.5328L170.089 52.4645C171.016 51.5347 171.997 50.9603 173.033 50.7413C174.082 50.5222 175.117 50.6105 176.136 51.0062C177.162 51.3954 178.123 52.0241 179.019 52.8925C179.988 53.8316 180.7 54.8173 181.154 55.8496C181.615 56.8882 181.769 57.9056 181.614 58.9017C181.467 59.9042 180.994 60.817 180.197 61.6402C179.431 62.4302 178.586 62.9174 177.66 63.102C176.735 63.2865 175.705 63.2472 174.57 62.984C173.973 62.843 173.448 62.7729 172.997 62.7734C172.559 62.7738 172.143 62.8653 171.747 63.0481C171.351 63.2308 170.95 63.5313 170.545 63.9495L170.275 64.2283L167.347 61.3916L167.617 61.1128ZM164.403 67.4587C164.078 67.1435 163.853 66.7712 163.729 66.3417C163.604 65.9122 163.597 65.4808 163.708 65.0476C163.819 64.6145 164.039 64.2351 164.367 63.9096C164.669 63.5845 165.031 63.3631 165.455 63.2453C165.878 63.1275 166.306 63.124 166.739 63.2349C167.172 63.3457 167.551 63.5587 167.877 63.8739C168.189 64.1762 168.404 64.5389 168.521 64.962C168.646 65.3915 168.659 65.8227 168.561 66.2557C168.47 66.6951 168.274 67.0774 167.971 67.4025C167.643 67.7279 167.261 67.9497 166.825 68.0677C166.395 68.1791 165.961 68.1826 165.521 68.0784C165.088 67.9676 164.715 67.761 164.403 67.4587Z" fill="#D1D5DB"/>
<path d="M42.9531 211.453C45 211.461 46.4531 213.344 46.4688 216.297C46.4531 219.258 45 221.133 42.9531 221.125C40.8906 221.133 39.4453 219.258 39.4531 216.297C39.4453 213.344 40.8906 211.461 42.9531 211.453ZM40.6094 216.297C40.6172 218.555 41.5781 220.039 42.9531 220.031C44.3438 220.039 45.2812 218.555 45.2812 216.297C45.2812 214.039 44.3438 212.555 42.9531 212.547C41.5781 212.555 40.6172 214.039 40.6094 216.297ZM48.7656 224.266V210.375H49.9844V215.922H52.3125V216.984H49.9844V224.266H48.7656ZM58.0625 212.953C58.0703 214.82 59.5469 216.524 61.625 217.203L61 218.156C59.3828 217.609 58.1016 216.469 57.4688 215C56.8594 216.578 55.5625 217.828 53.9062 218.422L53.2656 217.469C55.3516 216.734 56.8203 214.922 56.8281 212.953V212.359H53.5781V211.359H61.2656V212.359H58.0625V212.953ZM55.1875 220.531V219.516H64.5312V224.266H63.3125V220.531H55.1875ZM63.3125 218.781V210.375H64.5312V218.781H63.3125ZM83.6094 217.484V218.5H77.9531V221.344H76.7344V218.5H70.8906V217.484H83.6094ZM72.5156 223.969V219.969H73.75V222.938H82.1875V223.969H72.5156ZM72.5469 215.891V211.063H81.9531V215.891H72.5469ZM73.75 214.906H80.7344V212.031H73.75V214.906ZM89.2812 211.391C91.4609 211.399 93.0078 212.727 93.0156 214.656C93.0078 216.594 91.4609 217.914 89.2812 217.922C87.0859 217.914 85.5234 216.594 85.5312 214.656C85.5234 212.727 87.0859 211.399 89.2812 211.391ZM84.8125 220.188C87.375 220.195 90.9141 220.172 93.9844 219.719L94.0781 220.625C90.8984 221.219 87.4844 221.234 84.9844 221.234L84.8125 220.188ZM86.7344 214.656C86.7266 215.953 87.7969 216.844 89.2812 216.844C90.75 216.844 91.8203 215.953 91.8125 214.656C91.8203 213.367 90.75 212.469 89.2812 212.469C87.7969 212.469 86.7266 213.367 86.7344 214.656ZM94.9062 224.297V210.375H96.125V224.297H94.9062ZM109.312 210.375V216.031H111.562V217.063H109.312V224.266H108.094V210.375H109.312ZM98.6562 220.656C102.242 218.875 104.195 216.195 104.477 212.906H99.2969V211.875H105.719C105.711 215.805 103.867 219.391 99.3438 221.625L98.6562 220.656ZM119.172 218.531V220.266H121.703V218.531H122.844V224.078H118.016V218.531H119.172ZM116.625 214.188C116.617 212.289 118.117 211 120.234 211C122.102 211 123.516 212.055 123.781 213.656H126.688V210.375H127.922V217.734H126.688V214.672H123.789C123.547 216.313 122.117 217.391 120.234 217.391C118.117 217.391 116.617 216.094 116.625 214.188ZM117.797 214.188C117.797 215.461 118.805 216.367 120.234 216.375C121.633 216.367 122.641 215.461 122.641 214.188C122.641 212.922 121.633 212.031 120.234 212.031C118.805 212.031 117.797 212.922 117.797 214.188ZM119.172 223.109H121.703V221.203H119.172V223.109ZM123.031 223.25C124.703 222.555 125.586 221.031 125.594 219.625V218.438H126.812V219.625C126.797 221.086 127.68 222.625 129.375 223.25L128.734 224.188C127.453 223.68 126.617 222.695 126.188 221.547C125.75 222.68 124.898 223.664 123.672 224.188L123.031 223.25ZM133.969 211.453C135.859 211.461 137.227 213.086 137.414 215.688H140.531V210.375H141.75V224.297H140.531V216.703H137.43C137.297 219.43 135.906 221.133 133.969 221.125C131.914 221.133 130.477 219.258 130.484 216.297C130.477 213.344 131.914 211.461 133.969 211.453ZM131.656 216.297C131.664 218.555 132.602 220.039 133.969 220.031C135.328 220.039 136.281 218.555 136.281 216.297C136.281 214.039 135.328 212.555 133.969 212.547C132.602 212.555 131.664 214.039 131.656 216.297ZM156.781 221.453V222.484H144.062V221.453H147.219V217.711C146.031 217.094 145.312 216.094 145.312 214.828C145.312 212.68 147.422 211.266 150.391 211.25C153.359 211.266 155.469 212.68 155.469 214.828C155.469 216.07 154.773 217.055 153.625 217.672V221.453H156.781ZM146.5 214.828C146.492 216.383 148.109 217.422 150.391 217.422C152.648 217.422 154.281 216.383 154.281 214.828C154.281 213.274 152.648 212.25 150.391 212.266C148.109 212.25 146.492 213.274 146.5 214.828ZM148.422 221.453H152.391V218.149C151.789 218.305 151.117 218.391 150.391 218.391C149.68 218.391 149.016 218.313 148.422 218.156V221.453Z" fill="#9CA3AF"/>
</svg>
