<svg width="24" height="24" viewBox="0 0 24 24" fill="none" xmlns="http://www.w3.org/2000/svg">
<g clip-path="url(#clip0_1072_15841)">
<path d="M12.0022 15.5769C13.1353 15.5769 14.0977 15.1803 14.8894 14.3871C15.681 13.5939 16.0769 12.6308 16.0769 11.4977C16.0769 10.3646 15.6803 9.40224 14.8871 8.61058C14.0939 7.81891 13.1308 7.42308 11.9977 7.42308C10.8646 7.42308 9.90223 7.81966 9.11056 8.61282C8.31889 9.40601 7.92306 10.3692 7.92306 11.5023C7.92306 12.6353 8.31964 13.5977 9.11281 14.3894C9.90599 15.181 10.8691 15.5769 12.0022 15.5769ZM12 14.2C11.25 14.2 10.6125 13.9375 10.0875 13.4125C9.56246 12.8875 9.29996 12.25 9.29996 11.5C9.29996 10.75 9.56246 10.1125 10.0875 9.58748C10.6125 9.06248 11.25 8.79998 12 8.79998C12.75 8.79998 13.3875 9.06248 13.9125 9.58748C14.4375 10.1125 14.7 10.75 14.7 11.5C14.7 12.25 14.4375 12.8875 13.9125 13.4125C13.3875 13.9375 12.75 14.2 12 14.2ZM12 18.5C9.89484 18.5 7.96953 17.9384 6.22403 16.8153C4.47852 15.6923 3.08525 14.2147 2.04423 12.3827C1.9609 12.2391 1.9 12.0944 1.86153 11.9485C1.82307 11.8027 1.80383 11.653 1.80383 11.4995C1.80383 11.346 1.82307 11.1965 1.86153 11.051C1.9 10.9054 1.9609 10.7609 2.04423 10.6173C3.08525 8.78525 4.47852 7.30769 6.22403 6.18463C7.96953 5.06154 9.89484 4.5 12 4.5C14.1051 4.5 16.0304 5.06154 17.7759 6.18463C19.5214 7.30769 20.9147 8.78525 21.9557 10.6173C22.039 10.7609 22.0999 10.9056 22.1384 11.0514C22.1768 11.1973 22.1961 11.347 22.1961 11.5005C22.1961 11.654 22.1768 11.8035 22.1384 11.949C22.0999 12.0945 22.039 12.2391 21.9557 12.3827C20.9147 14.2147 19.5214 15.6923 17.7759 16.8153C16.0304 17.9384 14.1051 18.5 12 18.5ZM12 17C13.8833 17 15.6125 16.5041 17.1875 15.5125C18.7625 14.5208 19.9666 13.1833 20.8 11.5C19.9666 9.81664 18.7625 8.47914 17.1875 7.48748C15.6125 6.49581 13.8833 5.99998 12 5.99998C10.1166 5.99998 8.38746 6.49581 6.81246 7.48748C5.23746 8.47914 4.03329 9.81664 3.19996 11.5C4.03329 13.1833 5.23746 14.5208 6.81246 15.5125C8.38746 16.5041 10.1166 17 12 17Z" fill="#4B5563"/>
<path d="M15.773 12.9729L14.65 11.8499C14.8205 10.9601 14.5865 10.2012 13.948 9.57296C13.3096 8.94476 12.5435 8.70374 11.65 8.84989L10.5269 7.72684C10.759 7.61914 10.9977 7.54157 11.2432 7.49414C11.4887 7.44671 11.741 7.42299 12 7.42299C13.1346 7.42299 14.0977 7.81882 14.8894 8.61049C15.681 9.40216 16.0769 10.3653 16.0769 11.4999C16.0769 11.7589 16.0547 12.0111 16.0105 12.2566C15.9663 12.5021 15.8871 12.7409 15.773 12.9729ZM18.9538 16.0845L17.85 15.0499C18.4833 14.5666 19.05 14.0291 19.55 13.4374C20.05 12.8457 20.4666 12.1999 20.8 11.4999C19.9666 9.81656 18.7625 8.47906 17.1875 7.48739C15.6125 6.49572 13.8833 5.99989 12 5.99989C11.5166 5.99989 11.0458 6.03322 10.5875 6.09989C10.1291 6.16656 9.66662 6.26656 9.19995 6.39989L8.0346 5.23454C8.67049 4.98326 9.31888 4.798 9.97978 4.67877C10.6407 4.55953 11.3141 4.49991 12 4.49991C14.1487 4.49991 16.1224 5.05825 17.9211 6.17491C19.7198 7.29158 21.1031 8.80247 22.0711 10.7076C22.1377 10.8345 22.1861 10.9624 22.2163 11.0912C22.2464 11.2201 22.2615 11.3563 22.2615 11.4999C22.2615 11.6435 22.249 11.7797 22.224 11.9085C22.199 12.0374 22.1531 12.1653 22.0865 12.2922C21.7326 13.0448 21.2884 13.7396 20.7538 14.3768C20.2192 15.014 19.6192 15.5832 18.9538 16.0845ZM12 18.4999C9.89484 18.4999 7.96536 17.9374 6.21153 16.8124C4.45768 15.6874 3.06344 14.2056 2.02883 12.3672C1.94549 12.2403 1.8846 12.1025 1.84615 11.9537C1.80769 11.805 1.78845 11.6537 1.78845 11.4999C1.78845 11.346 1.80512 11.1973 1.83845 11.0537C1.87179 10.9102 1.93012 10.7698 2.01345 10.6326C2.38525 9.95311 2.80641 9.30599 3.27693 8.69124C3.74744 8.07649 4.28847 7.52553 4.9 7.03837L2.6423 4.76526C2.50384 4.61655 2.43557 4.43995 2.4375 4.23546C2.43942 4.03098 2.51281 3.85631 2.65768 3.71144C2.80254 3.56657 2.97819 3.49414 3.1846 3.49414C3.391 3.49414 3.56664 3.56657 3.7115 3.71144L20.2884 20.2883C20.4269 20.4268 20.5002 20.5983 20.5086 20.8027C20.5169 21.0072 20.4435 21.187 20.2884 21.3422C20.1435 21.487 19.9679 21.5595 19.7615 21.5595C19.5551 21.5595 19.3794 21.487 19.2346 21.3422L15.7154 17.8537C15.1256 18.0819 14.5195 18.2467 13.8971 18.3479C13.2746 18.4492 12.6423 18.4999 12 18.4999ZM5.95383 8.09216C5.36793 8.54473 4.84132 9.0566 4.374 9.62777C3.90669 10.1989 3.51534 10.823 3.19995 11.4999C4.03329 13.1832 5.23745 14.5207 6.81245 15.5124C8.38745 16.5041 10.1166 16.9999 12 16.9999C12.4295 16.9999 12.8522 16.971 13.2683 16.9133C13.6843 16.8557 14.0974 16.7666 14.5077 16.646L13.2423 15.3499C13.0397 15.4383 12.8375 15.4982 12.6355 15.5297C12.4336 15.5611 12.2218 15.5768 12 15.5768C10.8654 15.5768 9.90222 15.181 9.11055 14.3893C8.31889 13.5976 7.92305 12.6345 7.92305 11.4999C7.92305 11.2781 7.94036 11.0662 7.97498 10.8643C8.00959 10.6624 8.06793 10.4601 8.14998 10.2576L5.95383 8.09216Z" fill="#4B5563"/>
</g>
<defs>
<clipPath id="clip0_1072_15841">
<rect width="24" height="24" fill="white"/>
</clipPath>
</defs>
</svg>
