<svg width="24" height="24" viewBox="0 0 24 24" fill="none" xmlns="http://www.w3.org/2000/svg">
<path d="M12.0022 15.5769C13.1353 15.5769 14.0977 15.1803 14.8894 14.3871C15.681 13.5939 16.0769 12.6308 16.0769 11.4977C16.0769 10.3646 15.6803 9.40224 14.8871 8.61058C14.0939 7.81891 13.1308 7.42308 11.9977 7.42308C10.8646 7.42308 9.90223 7.81966 9.11056 8.61282C8.31889 9.40601 7.92306 10.3692 7.92306 11.5023C7.92306 12.6353 8.31964 13.5977 9.11281 14.3894C9.90599 15.181 10.8691 15.5769 12.0022 15.5769ZM12 14.2C11.25 14.2 10.6125 13.9375 10.0875 13.4125C9.56246 12.8875 9.29996 12.25 9.29996 11.5C9.29996 10.75 9.56246 10.1125 10.0875 9.58748C10.6125 9.06248 11.25 8.79998 12 8.79998C12.75 8.79998 13.3875 9.06248 13.9125 9.58748C14.4375 10.1125 14.7 10.75 14.7 11.5C14.7 12.25 14.4375 12.8875 13.9125 13.4125C13.3875 13.9375 12.75 14.2 12 14.2ZM12 18.5C9.89484 18.5 7.96953 17.9384 6.22403 16.8153C4.47852 15.6923 3.08525 14.2147 2.04423 12.3827C1.9609 12.2391 1.9 12.0944 1.86153 11.9485C1.82307 11.8027 1.80383 11.653 1.80383 11.4995C1.80383 11.346 1.82307 11.1965 1.86153 11.051C1.9 10.9054 1.9609 10.7609 2.04423 10.6173C3.08525 8.78525 4.47852 7.30769 6.22403 6.18463C7.96953 5.06154 9.89484 4.5 12 4.5C14.1051 4.5 16.0304 5.06154 17.7759 6.18463C19.5214 7.30769 20.9147 8.78525 21.9557 10.6173C22.039 10.7609 22.0999 10.9056 22.1384 11.0514C22.1768 11.1973 22.1961 11.347 22.1961 11.5005C22.1961 11.654 22.1768 11.8035 22.1384 11.949C22.0999 12.0945 22.039 12.2391 21.9557 12.3827C20.9147 14.2147 19.5214 15.6923 17.7759 16.8153C16.0304 17.9384 14.1051 18.5 12 18.5ZM12 17C13.8833 17 15.6125 16.5041 17.1875 15.5125C18.7625 14.5208 19.9666 13.1833 20.8 11.5C19.9666 9.81664 18.7625 8.47914 17.1875 7.48748C15.6125 6.49581 13.8833 5.99998 12 5.99998C10.1166 5.99998 8.38746 6.49581 6.81246 7.48748C5.23746 8.47914 4.03329 9.81664 3.19996 11.5C4.03329 13.1833 5.23746 14.5208 6.81246 15.5125C8.38746 16.5041 10.1166 17 12 17Z" fill="#4B5563"/>
</svg>
