<svg width="101" height="25" viewBox="0 0 101 25" fill="none" xmlns="http://www.w3.org/2000/svg">
<path d="M21.8926 7.6522H24.9685V11.2408H21.8926V18.5206H17.2786V14.0092C13.9976 14.6757 10.7422 15.0345 6.00006 15.0345H0.61712V11.5228H2.66776V4.24301H1.12978V0.78254H15.2792V4.24301H13.7413V11.1383C14.9973 10.9845 16.1764 10.8051 17.2786 10.6V0.52621H21.8926V7.6522ZM3.15479 24.6213V17.0083H7.87128V21.0583H22.4052V24.6213H3.15479ZM7.28172 11.5228C7.92254 11.4972 8.53774 11.4972 9.1273 11.4715V4.24301H7.28172V11.5228ZM50.6016 9.44652V13.0351H47.5256V24.6213H42.9117V20.5969C39.6306 21.5453 36.3752 22.0836 31.6331 22.0836H27.0192V1.2952H40.1433V4.75567H31.6331V18.5719C36.324 18.5719 39.6563 18.1105 42.9117 17.1877V0.52621H47.5256V9.44652H50.6016ZM76.2347 9.44652V13.0351H73.1587V24.6213H68.5447V0.52621H73.1587V9.44652H76.2347ZM52.6522 22.0836V1.2952H66.0583V22.0836H52.6522ZM57.2662 18.5719H61.4957V4.80693H57.2662V18.5719ZM95.844 0.52621H100.33V14.4193H95.844V0.52621ZM76.7473 11.6766C79.7464 11.0614 82.0021 10.113 83.2581 8.90822L78.2853 9.21582V5.88352H84.3347V4.24301H78.798V0.78254H88.8205V5.39649H90.2816V0.654375H94.6392V14.4193H90.2816V8.98512H88.154C86.7955 11.6253 83.3863 13.8041 78.2084 15.1114L76.7473 11.6766ZM79.5413 20.9558C85.8727 20.7251 87.7183 19.4178 87.7183 17.1877V15.2396H92.3322V17.5978C92.3322 18.213 92.2553 18.8026 92.1015 19.3409C95.075 19.5459 98.0228 19.9561 100.33 20.4944L99.0994 24.6213C96.4592 23.6985 92.768 22.8013 89.7946 22.3143C87.667 23.7498 84.2578 24.4419 80.0284 24.6213L79.5413 20.9558Z" fill="#3692FF"/>
</svg>
